<?xml version="1.0" encoding="utf-8"?>
<!-- Generator: Adobe Illustrator 27.5.0, SVG Export Plug-In . SVG Version: 6.00 Build 0)  -->
<svg version="1.1" xmlns="http://www.w3.org/2000/svg" xmlns:xlink="http://www.w3.org/1999/xlink" x="0px" y="0px"
	 viewBox="0 0 750 500" style="enable-background:new 0 0 750 500;" xml:space="preserve">
<g id="BACKGROUND">
	<rect style="fill:#FFFFFF;" width="750" height="500"/>
</g>
<g id="OBJECTS">
	<g>
		<defs>
			<rect id="SVGID_1_" width="750" height="500"/>
		</defs>
		<clipPath id="SVGID_00000177456388828761880890000008176991937387953545_">
			<use xlink:href="#SVGID_1_"  style="overflow:visible;"/>
		</clipPath>
		
			<polygon style="clip-path:url(#SVGID_00000177456388828761880890000008176991937387953545_);fill:none;stroke:#DBDBDB;stroke-width:4;stroke-miterlimit:10;" points="
			730.264,338.187 698.932,393.801 763.162,393.801 		"/>
		
			<polygon style="clip-path:url(#SVGID_00000177456388828761880890000008176991937387953545_);fill:none;stroke:#DBDBDB;stroke-width:4;stroke-miterlimit:10;" points="
			160.018,-11.963 123.007,53.732 198.88,53.732 		"/>
		
			<polygon style="clip-path:url(#SVGID_00000177456388828761880890000008176991937387953545_);fill:none;stroke:#DBDBDB;stroke-width:4;stroke-miterlimit:10;" points="
			640.846,177.235 603.45,242.931 680.112,242.931 		"/>
		<g style="clip-path:url(#SVGID_00000177456388828761880890000008176991937387953545_);">
			
				<ellipse transform="matrix(0.1602 -0.9871 0.9871 0.1602 433.0143 787.7376)" style="fill:#DBDBDB;" cx="679.445" cy="139.395" rx="24.588" ry="24.588"/>
		</g>
		<g style="clip-path:url(#SVGID_00000177456388828761880890000008176991937387953545_);">
			<polygon style="fill:#DBDBDB;" points="741.88,462.62 730.384,451.09 719.494,462.013 708.805,451.292 703.356,456.758 
				693.279,446.711 708.805,431.139 719.494,441.86 730.384,430.936 741.88,442.467 753.78,430.532 770.314,447.116 
				760.237,457.162 753.78,450.685 			"/>
		</g>
		<g style="clip-path:url(#SVGID_00000177456388828761880890000008176991937387953545_);">
			<path style="fill:#DBDBDB;" d="M51.912,102.847C51.06,81.785,33.775,64.969,12.567,64.969c-21.208,0-38.493,16.815-39.345,37.878
				H51.912z"/>
		</g>
		<g style="clip-path:url(#SVGID_00000177456388828761880890000008176991937387953545_);">
			
				<ellipse transform="matrix(0.9239 -0.3827 0.3827 0.9239 -127.8321 269.5231)" style="fill:#DBDBDB;" cx="613.575" cy="456.089" rx="14.027" ry="14.027"/>
		</g>
		<g style="clip-path:url(#SVGID_00000177456388828761880890000008176991937387953545_);">
			
				<ellipse transform="matrix(0.1602 -0.9871 0.9871 0.1602 442.7564 779.2757)" style="fill:#42004C;" cx="679.343" cy="129.439" rx="21.777" ry="21.776"/>
		</g>
		<g style="clip-path:url(#SVGID_00000177456388828761880890000008176991937387953545_);">
			
				<ellipse transform="matrix(0.9926 -0.1213 0.1213 0.9926 -22.4619 13.6715)" style="fill:#DBDBDB;" cx="101.1" cy="191.393" rx="31.588" ry="31.589"/>
		</g>
		<g style="clip-path:url(#SVGID_00000177456388828761880890000008176991937387953545_);">
			
				<ellipse transform="matrix(0.9738 -0.2276 0.2276 0.9738 -83.2017 17.0361)" style="fill:none;stroke:#DBDBDB;stroke-width:4;stroke-miterlimit:10;" cx="32.274" cy="369.311" rx="22.273" ry="22.273"/>
		</g>
		<g style="clip-path:url(#SVGID_00000177456388828761880890000008176991937387953545_);">
			
				<ellipse transform="matrix(0.9239 -0.3827 0.3827 0.9239 -5.26 299.2935)" style="fill:none;stroke:#DBDBDB;stroke-width:4;stroke-miterlimit:10;" cx="749.695" cy="162.869" rx="22.273" ry="22.273"/>
		</g>
		<g style="clip-path:url(#SVGID_00000177456388828761880890000008176991937387953545_);">
			<path style="fill:#FFB624;" d="M29.622,113.277C29.129,101.104,19.14,91.386,6.883,91.386c-12.257,0-22.247,9.718-22.739,21.891
				H29.622z"/>
		</g>
		<g style="clip-path:url(#SVGID_00000177456388828761880890000008176991937387953545_);">
			<path style="fill:none;stroke:#42004C;stroke-miterlimit:10;" d="M701.255-25.814c-15.149,0.612-27.243,13.045-27.243,28.298
				c0,15.254,12.094,27.686,27.243,28.298V-25.814z"/>
		</g>
		<g style="clip-path:url(#SVGID_00000177456388828761880890000008176991937387953545_);">
			<path style="fill:none;stroke:#42004C;stroke-miterlimit:10;" d="M708.757-25.814c-15.149,0.612-27.243,13.045-27.243,28.298
				c0,15.254,12.094,27.686,27.243,28.298V-25.814z"/>
		</g>
		<g style="clip-path:url(#SVGID_00000177456388828761880890000008176991937387953545_);">
			<path style="fill:none;stroke:#42004C;stroke-miterlimit:10;" d="M716.259-25.814c-15.149,0.612-27.243,13.045-27.243,28.298
				c0,15.254,12.094,27.686,27.243,28.298V-25.814z"/>
		</g>
		<g style="clip-path:url(#SVGID_00000177456388828761880890000008176991937387953545_);">
			<polygon style="fill:#42004C;" points="737.515,459.913 726.02,448.382 715.129,459.306 704.44,448.585 696.026,457.023 
				691.877,452.886 704.44,440.286 715.129,451.008 726.02,440.084 737.515,451.615 749.414,439.679 762.984,453.291 
				758.835,457.427 749.414,447.978 			"/>
		</g>
		<g style="clip-path:url(#SVGID_00000177456388828761880890000008176991937387953545_);">
			<g>
				<defs>
					<polygon id="SVGID_00000069357086116452720560000016092706432897707683_" points="397.504,494.979 397.504,443.116 
						449.367,443.116 					"/>
				</defs>
				<use xlink:href="#SVGID_00000069357086116452720560000016092706432897707683_"  style="overflow:visible;fill:#DBDBDB;"/>
				<clipPath id="SVGID_00000111882859196807133040000001716728394143709578_">
					<use xlink:href="#SVGID_00000069357086116452720560000016092706432897707683_"  style="overflow:visible;"/>
				</clipPath>
				<g style="clip-path:url(#SVGID_00000111882859196807133040000001716728394143709578_);">
					<line style="fill:#DBDBDB;" x1="384.03" y1="531.869" x2="486.559" y2="429.34"/>
				</g>
				<g style="clip-path:url(#SVGID_00000111882859196807133040000001716728394143709578_);">
					<line style="fill:#DBDBDB;" x1="379.574" y1="527.412" x2="482.103" y2="424.884"/>
				</g>
				<g style="clip-path:url(#SVGID_00000111882859196807133040000001716728394143709578_);">
					<line style="fill:#DBDBDB;" x1="375.118" y1="522.956" x2="477.647" y2="420.428"/>
				</g>
				<g style="clip-path:url(#SVGID_00000111882859196807133040000001716728394143709578_);">
					<line style="fill:#DBDBDB;" x1="370.662" y1="518.5" x2="473.19" y2="415.972"/>
				</g>
				<g style="clip-path:url(#SVGID_00000111882859196807133040000001716728394143709578_);">
					<line style="fill:#DBDBDB;" x1="366.206" y1="514.044" x2="468.734" y2="411.515"/>
				</g>
				<g style="clip-path:url(#SVGID_00000111882859196807133040000001716728394143709578_);">
					<line style="fill:#DBDBDB;" x1="361.749" y1="509.588" x2="464.278" y2="407.059"/>
				</g>
				<g style="clip-path:url(#SVGID_00000111882859196807133040000001716728394143709578_);">
					<line style="fill:#DBDBDB;" x1="357.293" y1="505.131" x2="459.822" y2="402.603"/>
				</g>
				<g style="clip-path:url(#SVGID_00000111882859196807133040000001716728394143709578_);">
					<line style="fill:#DBDBDB;" x1="352.837" y1="500.675" x2="455.365" y2="398.147"/>
				</g>
				<g style="clip-path:url(#SVGID_00000111882859196807133040000001716728394143709578_);">
					<line style="fill:#DBDBDB;" x1="348.381" y1="496.219" x2="450.909" y2="393.69"/>
				</g>
				<g style="clip-path:url(#SVGID_00000111882859196807133040000001716728394143709578_);">
					<line style="fill:#DBDBDB;" x1="343.924" y1="491.763" x2="446.453" y2="389.234"/>
				</g>
				<g style="clip-path:url(#SVGID_00000111882859196807133040000001716728394143709578_);">
					<line style="fill:#DBDBDB;" x1="339.468" y1="487.306" x2="441.997" y2="384.778"/>
				</g>
				<g style="clip-path:url(#SVGID_00000111882859196807133040000001716728394143709578_);">
					<line style="fill:#DBDBDB;" x1="335.012" y1="482.85" x2="437.54" y2="380.322"/>
				</g>
			</g>
			<g>
				<defs>
					<polygon id="SVGID_00000152949647561725114330000007017648736871890082_" points="403.616,480.718 403.616,428.855 
						455.479,428.855 					"/>
				</defs>
				<clipPath id="SVGID_00000107578167429031065200000014395491038617510317_">
					<use xlink:href="#SVGID_00000152949647561725114330000007017648736871890082_"  style="overflow:visible;"/>
				</clipPath>
				<g style="clip-path:url(#SVGID_00000107578167429031065200000014395491038617510317_);">
					
						<rect x="368.908" y="465.299" transform="matrix(0.7071 -0.7071 0.7071 0.7071 -200.4686 448.6886)" style="fill:#FFB624;" width="144.997" height="2.087"/>
				</g>
				<g style="clip-path:url(#SVGID_00000107578167429031065200000014395491038617510317_);">
					
						<rect x="364.452" y="460.843" transform="matrix(0.7071 -0.7071 0.7071 0.7071 -198.6228 444.2326)" style="fill:#FFB624;" width="144.997" height="2.087"/>
				</g>
				<g style="clip-path:url(#SVGID_00000107578167429031065200000014395491038617510317_);">
					
						<rect x="359.996" y="456.387" transform="matrix(0.7071 -0.7071 0.7071 0.7071 -196.7781 439.8192)" style="fill:#FFB624;" width="144.997" height="2.087"/>
				</g>
				<g style="clip-path:url(#SVGID_00000107578167429031065200000014395491038617510317_);">
					
						<rect x="355.54" y="451.93" transform="matrix(0.7071 -0.7071 0.7071 0.7071 -194.9317 435.3418)" style="fill:#42004C;" width="144.997" height="2.087"/>
				</g>
				<g style="clip-path:url(#SVGID_00000107578167429031065200000014395491038617510317_);">
					
						<rect x="351.083" y="447.474" transform="matrix(0.7071 -0.7071 0.7071 0.7071 -193.0864 430.9064)" style="fill:#42004C;" width="144.997" height="2.087"/>
				</g>
				<g style="clip-path:url(#SVGID_00000107578167429031065200000014395491038617510317_);">
					
						<rect x="346.627" y="443.018" transform="matrix(0.7071 -0.7071 0.7071 0.7071 -191.2406 426.45)" style="fill:#42004C;" width="144.997" height="2.087"/>
				</g>
				<g style="clip-path:url(#SVGID_00000107578167429031065200000014395491038617510317_);">
					
						<rect x="342.171" y="438.562" transform="matrix(0.7071 -0.7071 0.7071 0.7071 -189.394 421.9685)" style="fill:#42004C;" width="144.997" height="2.087"/>
				</g>
				<g style="clip-path:url(#SVGID_00000107578167429031065200000014395491038617510317_);">
					
						<rect x="337.715" y="434.106" transform="matrix(0.7071 -0.7071 0.7071 0.7071 -187.5483 417.5169)" style="fill:#42004C;" width="144.997" height="2.088"/>
				</g>
				<g style="clip-path:url(#SVGID_00000107578167429031065200000014395491038617510317_);">
					
						<rect x="333.259" y="429.649" transform="matrix(0.7071 -0.7071 0.7071 0.7071 -185.7019 413.0407)" style="fill:#42004C;" width="144.997" height="2.087"/>
				</g>
				<g style="clip-path:url(#SVGID_00000107578167429031065200000014395491038617510317_);">
					
						<rect x="328.802" y="425.193" transform="matrix(0.7071 -0.7071 0.7071 0.7071 -183.8573 408.6244)" style="fill:#FFB624;" width="144.997" height="2.087"/>
				</g>
				<g style="clip-path:url(#SVGID_00000107578167429031065200000014395491038617510317_);">
					
						<rect x="324.346" y="420.737" transform="matrix(0.7071 -0.7071 0.7071 0.7071 -182.0114 404.1679)" style="fill:#FFB624;" width="144.997" height="2.087"/>
				</g>
				<g style="clip-path:url(#SVGID_00000107578167429031065200000014395491038617510317_);">
					
						<rect x="319.89" y="416.281" transform="matrix(0.7071 -0.7071 0.7071 0.7071 -180.1656 399.7113)" style="fill:#FFB624;" width="144.997" height="2.087"/>
				</g>
			</g>
		</g>
		<g style="clip-path:url(#SVGID_00000177456388828761880890000008176991937387953545_);">
			<g>
				<path style="fill:#DBDBDB;" d="M608.221,310.966c-14.702,0-26.662-11.961-26.662-26.662h11.93
					c0,8.124,6.609,14.733,14.733,14.733c8.123,0,14.732-6.609,14.732-14.733h11.93
					C634.883,299.006,622.923,310.966,608.221,310.966z"/>
			</g>
			<g>
				<path style="fill:#42004C;" d="M602.252,301.56c-12.96,0-23.504-10.544-23.504-23.504h5.614c0,9.865,8.026,17.89,17.89,17.89
					c9.864,0,17.89-8.026,17.89-17.89h5.614C625.756,291.017,615.212,301.56,602.252,301.56z"/>
			</g>
		</g>
		<g style="clip-path:url(#SVGID_00000177456388828761880890000008176991937387953545_);">
			<g>
				<g>
					<g>
						<g>
							<path style="fill:#FFB624;" d="M98.344,294.244c-0.854,0-1.547-0.691-1.547-1.543c0-0.852,0.693-1.543,1.547-1.543
								s1.547,0.691,1.547,1.543C99.891,293.553,99.198,294.244,98.344,294.244z"/>
						</g>
						<g>
							<path style="fill:#FFB624;" d="M80.799,294.244c-0.854,0-1.547-0.691-1.547-1.543c0-0.852,0.693-1.543,1.547-1.543
								s1.547,0.691,1.547,1.543C82.346,293.553,81.653,294.244,80.799,294.244z"/>
						</g>
						<g>
							<path style="fill:#FFB624;" d="M63.253,294.244c-0.855,0-1.547-0.691-1.547-1.543c0-0.852,0.693-1.543,1.547-1.543
								c0.855,0,1.547,0.691,1.547,1.543C64.8,293.553,64.108,294.244,63.253,294.244z"/>
						</g>
						<g>
							<path style="fill:#FFB624;" d="M45.708,294.244c-0.854,0-1.547-0.691-1.547-1.543c0-0.852,0.693-1.543,1.547-1.543
								s1.547,0.691,1.547,1.543C47.255,293.553,46.562,294.244,45.708,294.244z"/>
						</g>
					</g>
					<g>
						<g>
							<path style="fill:#FFB624;" d="M98.344,313.34c-0.854,0-1.547-0.691-1.547-1.543c0-0.852,0.693-1.543,1.547-1.543
								s1.547,0.691,1.547,1.543C99.891,312.649,99.198,313.34,98.344,313.34z"/>
						</g>
						<g>
							<path style="fill:#FFB624;" d="M80.799,313.34c-0.854,0-1.547-0.691-1.547-1.543c0-0.852,0.693-1.543,1.547-1.543
								s1.547,0.691,1.547,1.543C82.346,312.649,81.653,313.34,80.799,313.34z"/>
						</g>
						<g>
							<path style="fill:#FFB624;" d="M63.253,313.34c-0.855,0-1.547-0.691-1.547-1.543c0-0.852,0.693-1.543,1.547-1.543
								c0.855,0,1.547,0.691,1.547,1.543C64.8,312.649,64.108,313.34,63.253,313.34z"/>
						</g>
						<g>
							<path style="fill:#FFB624;" d="M45.708,313.34c-0.854,0-1.547-0.691-1.547-1.543c0-0.852,0.693-1.543,1.547-1.543
								s1.547,0.691,1.547,1.543C47.255,312.649,46.562,313.34,45.708,313.34z"/>
						</g>
					</g>
					<g>
						<g>
							<path style="fill:#FFB624;" d="M98.344,332.436c-0.854,0-1.547-0.691-1.547-1.543c0-0.852,0.693-1.543,1.547-1.543
								s1.547,0.691,1.547,1.543C99.891,331.745,99.198,332.436,98.344,332.436z"/>
						</g>
						<g>
							<path style="fill:#FFB624;" d="M80.799,332.436c-0.854,0-1.547-0.691-1.547-1.543c0-0.852,0.693-1.543,1.547-1.543
								s1.547,0.691,1.547,1.543C82.346,331.745,81.653,332.436,80.799,332.436z"/>
						</g>
						<g>
							<path style="fill:#FFB624;" d="M63.253,332.436c-0.855,0-1.547-0.691-1.547-1.543c0-0.852,0.693-1.543,1.547-1.543
								c0.855,0,1.547,0.691,1.547,1.543C64.8,331.745,64.108,332.436,63.253,332.436z"/>
						</g>
						<g>
							<path style="fill:#FFB624;" d="M45.708,332.436c-0.854,0-1.547-0.691-1.547-1.543c0-0.852,0.693-1.543,1.547-1.543
								s1.547,0.691,1.547,1.543C47.255,331.745,46.562,332.436,45.708,332.436z"/>
						</g>
					</g>
					<g>
						<g>
							<path style="fill:#FFB624;" d="M98.344,351.531c-0.854,0-1.547-0.691-1.547-1.543c0-0.852,0.693-1.543,1.547-1.543
								s1.547,0.691,1.547,1.543C99.891,350.841,99.198,351.531,98.344,351.531z"/>
						</g>
						<g>
							<path style="fill:#FFB624;" d="M80.799,351.531c-0.854,0-1.547-0.691-1.547-1.543c0-0.852,0.693-1.543,1.547-1.543
								s1.547,0.691,1.547,1.543C82.346,350.841,81.653,351.531,80.799,351.531z"/>
						</g>
						<g>
							<path style="fill:#FFB624;" d="M63.253,351.531c-0.855,0-1.547-0.691-1.547-1.543c0-0.852,0.693-1.543,1.547-1.543
								c0.855,0,1.547,0.691,1.547,1.543C64.8,350.841,64.108,351.531,63.253,351.531z"/>
						</g>
						<g>
							<path style="fill:#FFB624;" d="M45.708,351.531c-0.854,0-1.547-0.691-1.547-1.543c0-0.852,0.693-1.543,1.547-1.543
								s1.547,0.691,1.547,1.543C47.255,350.841,46.562,351.531,45.708,351.531z"/>
						</g>
					</g>
				</g>
				<g>
					<g>
						<g>
							<path style="fill:#FFB624;" d="M98.344,303.654c-0.854,0-1.547-0.691-1.547-1.543c0-0.852,0.693-1.543,1.547-1.543
								s1.547,0.691,1.547,1.543C99.891,302.963,99.198,303.654,98.344,303.654z"/>
						</g>
						<g>
							<path style="fill:#FFB624;" d="M80.799,303.654c-0.854,0-1.547-0.691-1.547-1.543c0-0.852,0.693-1.543,1.547-1.543
								s1.547,0.691,1.547,1.543C82.346,302.963,81.653,303.654,80.799,303.654z"/>
						</g>
						<g>
							<path style="fill:#FFB624;" d="M63.253,303.654c-0.855,0-1.547-0.691-1.547-1.543c0-0.852,0.693-1.543,1.547-1.543
								c0.855,0,1.547,0.691,1.547,1.543C64.8,302.963,64.108,303.654,63.253,303.654z"/>
						</g>
						<g>
							<path style="fill:#FFB624;" d="M45.708,303.654c-0.854,0-1.547-0.691-1.547-1.543c0-0.852,0.693-1.543,1.547-1.543
								s1.547,0.691,1.547,1.543C47.255,302.963,46.562,303.654,45.708,303.654z"/>
						</g>
					</g>
					<g>
						<g>
							<path style="fill:#FFB624;" d="M98.344,322.75c-0.854,0-1.547-0.691-1.547-1.543c0-0.852,0.693-1.543,1.547-1.543
								s1.547,0.691,1.547,1.543C99.891,322.059,99.198,322.75,98.344,322.75z"/>
						</g>
						<g>
							<path style="fill:#FFB624;" d="M80.799,322.75c-0.854,0-1.547-0.691-1.547-1.543c0-0.852,0.693-1.543,1.547-1.543
								s1.547,0.691,1.547,1.543C82.346,322.059,81.653,322.75,80.799,322.75z"/>
						</g>
						<g>
							<path style="fill:#FFB624;" d="M63.253,322.75c-0.855,0-1.547-0.691-1.547-1.543c0-0.852,0.693-1.543,1.547-1.543
								c0.855,0,1.547,0.691,1.547,1.543C64.8,322.059,64.108,322.75,63.253,322.75z"/>
						</g>
						<g>
							<path style="fill:#FFB624;" d="M45.708,322.75c-0.854,0-1.547-0.691-1.547-1.543c0-0.852,0.693-1.543,1.547-1.543
								s1.547,0.691,1.547,1.543C47.255,322.059,46.562,322.75,45.708,322.75z"/>
						</g>
					</g>
					<g>
						<g>
							<path style="fill:#FFB624;" d="M98.344,341.845c-0.854,0-1.547-0.691-1.547-1.543c0-0.852,0.693-1.543,1.547-1.543
								s1.547,0.691,1.547,1.543C99.891,341.155,99.198,341.845,98.344,341.845z"/>
						</g>
						<g>
							<path style="fill:#FFB624;" d="M80.799,341.845c-0.854,0-1.547-0.691-1.547-1.543c0-0.852,0.693-1.543,1.547-1.543
								s1.547,0.691,1.547,1.543C82.346,341.155,81.653,341.845,80.799,341.845z"/>
						</g>
						<g>
							<path style="fill:#FFB624;" d="M63.253,341.845c-0.855,0-1.547-0.691-1.547-1.543c0-0.852,0.693-1.543,1.547-1.543
								c0.855,0,1.547,0.691,1.547,1.543C64.8,341.155,64.108,341.845,63.253,341.845z"/>
						</g>
						<g>
							<path style="fill:#FFB624;" d="M45.708,341.845c-0.854,0-1.547-0.691-1.547-1.543c0-0.852,0.693-1.543,1.547-1.543
								s1.547,0.691,1.547,1.543C47.255,341.155,46.562,341.845,45.708,341.845z"/>
						</g>
					</g>
					<g>
						<g>
							<path style="fill:#FFB624;" d="M98.344,360.941c-0.854,0-1.547-0.691-1.547-1.543c0-0.852,0.693-1.543,1.547-1.543
								s1.547,0.691,1.547,1.543C99.891,360.251,99.198,360.941,98.344,360.941z"/>
						</g>
						<g>
							<path style="fill:#FFB624;" d="M80.799,360.941c-0.854,0-1.547-0.691-1.547-1.543c0-0.852,0.693-1.543,1.547-1.543
								s1.547,0.691,1.547,1.543C82.346,360.251,81.653,360.941,80.799,360.941z"/>
						</g>
						<g>
							<path style="fill:#FFB624;" d="M63.253,360.941c-0.855,0-1.547-0.691-1.547-1.543c0-0.852,0.693-1.543,1.547-1.543
								c0.855,0,1.547,0.691,1.547,1.543C64.8,360.251,64.108,360.941,63.253,360.941z"/>
						</g>
						<g>
							<path style="fill:#FFB624;" d="M45.708,360.941c-0.854,0-1.547-0.691-1.547-1.543c0-0.852,0.693-1.543,1.547-1.543
								s1.547,0.691,1.547,1.543C47.255,360.251,46.562,360.941,45.708,360.941z"/>
						</g>
					</g>
				</g>
				<g>
					<g>
						<g>
							<path style="fill:#FFB624;" d="M107.458,294.244c-0.854,0-1.547-0.691-1.547-1.543c0-0.852,0.693-1.543,1.547-1.543
								s1.547,0.691,1.547,1.543C109.005,293.553,108.312,294.244,107.458,294.244z"/>
						</g>
						<g>
							<path style="fill:#FFB624;" d="M89.912,294.244c-0.854,0-1.547-0.691-1.547-1.543c0-0.852,0.693-1.543,1.547-1.543
								c0.854,0,1.547,0.691,1.547,1.543C91.46,293.553,90.767,294.244,89.912,294.244z"/>
						</g>
						<g>
							<path style="fill:#FFB624;" d="M72.367,294.244c-0.855,0-1.547-0.691-1.547-1.543c0-0.852,0.693-1.543,1.547-1.543
								c0.854,0,1.547,0.691,1.547,1.543C73.914,293.553,73.222,294.244,72.367,294.244z"/>
						</g>
						<g>
							<path style="fill:#FFB624;" d="M54.822,294.244c-0.854,0-1.547-0.691-1.547-1.543c0-0.852,0.693-1.543,1.547-1.543
								c0.855,0,1.547,0.691,1.547,1.543C56.369,293.553,55.676,294.244,54.822,294.244z"/>
						</g>
						<g>
							<path style="fill:#FFB624;" d="M37.276,294.244c-0.854,0-1.547-0.691-1.547-1.543c0-0.852,0.693-1.543,1.547-1.543
								c0.855,0,1.547,0.691,1.547,1.543C38.824,293.553,38.131,294.244,37.276,294.244z"/>
						</g>
					</g>
					<g>
						<g>
							<path style="fill:#FFB624;" d="M107.458,313.34c-0.854,0-1.547-0.691-1.547-1.543c0-0.852,0.693-1.543,1.547-1.543
								s1.547,0.691,1.547,1.543C109.005,312.649,108.312,313.34,107.458,313.34z"/>
						</g>
						<g>
							<path style="fill:#FFB624;" d="M89.912,313.34c-0.854,0-1.547-0.691-1.547-1.543c0-0.852,0.693-1.543,1.547-1.543
								c0.854,0,1.547,0.691,1.547,1.543C91.46,312.649,90.767,313.34,89.912,313.34z"/>
						</g>
						<g>
							<path style="fill:#FFB624;" d="M72.367,313.34c-0.855,0-1.547-0.691-1.547-1.543c0-0.852,0.693-1.543,1.547-1.543
								c0.854,0,1.547,0.691,1.547,1.543C73.914,312.649,73.222,313.34,72.367,313.34z"/>
						</g>
						<g>
							<path style="fill:#FFB624;" d="M54.822,313.34c-0.854,0-1.547-0.691-1.547-1.543c0-0.852,0.693-1.543,1.547-1.543
								c0.855,0,1.547,0.691,1.547,1.543C56.369,312.649,55.676,313.34,54.822,313.34z"/>
						</g>
						<g>
							<path style="fill:#FFB624;" d="M37.276,313.34c-0.854,0-1.547-0.691-1.547-1.543c0-0.852,0.693-1.543,1.547-1.543
								c0.855,0,1.547,0.691,1.547,1.543C38.824,312.649,38.131,313.34,37.276,313.34z"/>
						</g>
					</g>
					<g>
						<g>
							<path style="fill:#FFB624;" d="M107.458,332.436c-0.854,0-1.547-0.691-1.547-1.543c0-0.852,0.693-1.543,1.547-1.543
								s1.547,0.691,1.547,1.543C109.005,331.745,108.312,332.436,107.458,332.436z"/>
						</g>
						<g>
							<path style="fill:#FFB624;" d="M89.912,332.436c-0.854,0-1.547-0.691-1.547-1.543c0-0.852,0.693-1.543,1.547-1.543
								c0.854,0,1.547,0.691,1.547,1.543C91.46,331.745,90.767,332.436,89.912,332.436z"/>
						</g>
						<g>
							<ellipse style="fill:#FFB624;" cx="72.367" cy="330.893" rx="1.547" ry="1.543"/>
						</g>
						<g>
							<ellipse style="fill:#FFB624;" cx="54.822" cy="330.893" rx="1.547" ry="1.543"/>
						</g>
						<g>
							<path style="fill:#FFB624;" d="M37.276,332.436c-0.854,0-1.547-0.691-1.547-1.543c0-0.852,0.693-1.543,1.547-1.543
								c0.855,0,1.547,0.691,1.547,1.543C38.824,331.745,38.131,332.436,37.276,332.436z"/>
						</g>
					</g>
					<g>
						<g>
							<path style="fill:#FFB624;" d="M107.458,351.531c-0.854,0-1.547-0.691-1.547-1.543c0-0.852,0.693-1.543,1.547-1.543
								s1.547,0.691,1.547,1.543C109.005,350.841,108.312,351.531,107.458,351.531z"/>
						</g>
						<g>
							<path style="fill:#FFB624;" d="M89.912,351.531c-0.854,0-1.547-0.691-1.547-1.543c0-0.852,0.693-1.543,1.547-1.543
								c0.854,0,1.547,0.691,1.547,1.543C91.46,350.841,90.767,351.531,89.912,351.531z"/>
						</g>
						<g>
							<path style="fill:#FFB624;" d="M72.367,351.531c-0.855,0-1.547-0.691-1.547-1.543c0-0.852,0.693-1.543,1.547-1.543
								c0.854,0,1.547,0.691,1.547,1.543C73.914,350.841,73.222,351.531,72.367,351.531z"/>
						</g>
						<g>
							<path style="fill:#FFB624;" d="M54.822,351.531c-0.854,0-1.547-0.691-1.547-1.543c0-0.852,0.693-1.543,1.547-1.543
								c0.855,0,1.547,0.691,1.547,1.543C56.369,350.841,55.676,351.531,54.822,351.531z"/>
						</g>
						<g>
							<path style="fill:#FFB624;" d="M37.276,351.531c-0.854,0-1.547-0.691-1.547-1.543c0-0.852,0.693-1.543,1.547-1.543
								c0.855,0,1.547,0.691,1.547,1.543C38.824,350.841,38.131,351.531,37.276,351.531z"/>
						</g>
					</g>
				</g>
				<g>
					<g>
						<g>
							<path style="fill:#FFB624;" d="M107.458,303.654c-0.854,0-1.547-0.691-1.547-1.543c0-0.852,0.693-1.543,1.547-1.543
								s1.547,0.691,1.547,1.543C109.005,302.963,108.312,303.654,107.458,303.654z"/>
						</g>
						<g>
							<path style="fill:#FFB624;" d="M89.912,303.654c-0.854,0-1.547-0.691-1.547-1.543c0-0.852,0.693-1.543,1.547-1.543
								c0.854,0,1.547,0.691,1.547,1.543C91.46,302.963,90.767,303.654,89.912,303.654z"/>
						</g>
						<g>
							<ellipse style="fill:#FFB624;" cx="72.367" cy="302.111" rx="1.547" ry="1.543"/>
						</g>
						<g>
							<ellipse style="fill:#FFB624;" cx="54.822" cy="302.111" rx="1.547" ry="1.543"/>
						</g>
						<g>
							<path style="fill:#FFB624;" d="M37.276,303.654c-0.854,0-1.547-0.691-1.547-1.543c0-0.852,0.693-1.543,1.547-1.543
								c0.855,0,1.547,0.691,1.547,1.543C38.824,302.963,38.131,303.654,37.276,303.654z"/>
						</g>
					</g>
					<g>
						<g>
							<path style="fill:#FFB624;" d="M107.458,322.75c-0.854,0-1.547-0.691-1.547-1.543c0-0.852,0.693-1.543,1.547-1.543
								s1.547,0.691,1.547,1.543C109.005,322.059,108.312,322.75,107.458,322.75z"/>
						</g>
						<g>
							<path style="fill:#FFB624;" d="M89.912,322.75c-0.854,0-1.547-0.691-1.547-1.543c0-0.852,0.693-1.543,1.547-1.543
								c0.854,0,1.547,0.691,1.547,1.543C91.46,322.059,90.767,322.75,89.912,322.75z"/>
						</g>
						<g>
							<path style="fill:#FFB624;" d="M72.367,322.75c-0.855,0-1.547-0.691-1.547-1.543c0-0.852,0.693-1.543,1.547-1.543
								c0.854,0,1.547,0.691,1.547,1.543C73.914,322.059,73.222,322.75,72.367,322.75z"/>
						</g>
						<g>
							<path style="fill:#FFB624;" d="M54.822,322.75c-0.854,0-1.547-0.691-1.547-1.543c0-0.852,0.693-1.543,1.547-1.543
								c0.855,0,1.547,0.691,1.547,1.543C56.369,322.059,55.676,322.75,54.822,322.75z"/>
						</g>
						<g>
							<path style="fill:#FFB624;" d="M37.276,322.75c-0.854,0-1.547-0.691-1.547-1.543c0-0.852,0.693-1.543,1.547-1.543
								c0.855,0,1.547,0.691,1.547,1.543C38.824,322.059,38.131,322.75,37.276,322.75z"/>
						</g>
					</g>
					<g>
						<g>
							<path style="fill:#FFB624;" d="M107.458,341.845c-0.854,0-1.547-0.691-1.547-1.543c0-0.852,0.693-1.543,1.547-1.543
								s1.547,0.691,1.547,1.543C109.005,341.155,108.312,341.845,107.458,341.845z"/>
						</g>
						<g>
							<path style="fill:#FFB624;" d="M89.912,341.845c-0.854,0-1.547-0.691-1.547-1.543c0-0.852,0.693-1.543,1.547-1.543
								c0.854,0,1.547,0.691,1.547,1.543C91.46,341.155,90.767,341.845,89.912,341.845z"/>
						</g>
						<g>
							<ellipse style="fill:#FFB624;" cx="72.367" cy="340.303" rx="1.547" ry="1.543"/>
						</g>
						<g>
							<ellipse style="fill:#FFB624;" cx="54.822" cy="340.303" rx="1.547" ry="1.543"/>
						</g>
						<g>
							<path style="fill:#FFB624;" d="M37.276,341.845c-0.854,0-1.547-0.691-1.547-1.543c0-0.852,0.693-1.543,1.547-1.543
								c0.855,0,1.547,0.691,1.547,1.543C38.824,341.155,38.131,341.845,37.276,341.845z"/>
						</g>
					</g>
					<g>
						<g>
							<path style="fill:#FFB624;" d="M107.458,360.941c-0.854,0-1.547-0.691-1.547-1.543c0-0.852,0.693-1.543,1.547-1.543
								s1.547,0.691,1.547,1.543C109.005,360.251,108.312,360.941,107.458,360.941z"/>
						</g>
						<g>
							<path style="fill:#FFB624;" d="M89.912,360.941c-0.854,0-1.547-0.691-1.547-1.543c0-0.852,0.693-1.543,1.547-1.543
								c0.854,0,1.547,0.691,1.547,1.543C91.46,360.251,90.767,360.941,89.912,360.941z"/>
						</g>
						<g>
							<path style="fill:#FFB624;" d="M72.367,360.941c-0.855,0-1.547-0.691-1.547-1.543c0-0.852,0.693-1.543,1.547-1.543
								c0.854,0,1.547,0.691,1.547,1.543C73.914,360.251,73.222,360.941,72.367,360.941z"/>
						</g>
						<g>
							<path style="fill:#FFB624;" d="M54.822,360.941c-0.854,0-1.547-0.691-1.547-1.543c0-0.852,0.693-1.543,1.547-1.543
								c0.855,0,1.547,0.691,1.547,1.543C56.369,360.251,55.676,360.941,54.822,360.941z"/>
						</g>
						<g>
							<path style="fill:#FFB624;" d="M37.276,360.941c-0.854,0-1.547-0.691-1.547-1.543c0-0.852,0.693-1.543,1.547-1.543
								c0.855,0,1.547,0.691,1.547,1.543C38.824,360.251,38.131,360.941,37.276,360.941z"/>
						</g>
					</g>
				</g>
			</g>
			<g>
				<path style="fill:#42004C;" d="M96.797,304.845v-5.468c9.328,0,16.918-7.589,16.918-16.917c0-9.328-7.59-16.917-16.918-16.917
					v-5.468c12.344,0,22.386,10.042,22.386,22.385C119.182,294.803,109.14,304.845,96.797,304.845z"/>
			</g>
		</g>
		<g style="clip-path:url(#SVGID_00000177456388828761880890000008176991937387953545_);">
			<g>
				
					<rect x="652.414" y="229.838" transform="matrix(0.7082 -0.706 0.706 0.7082 21.7813 533.1597)" style="fill:#FFB624;" width="6.856" height="20.787"/>
			</g>
			<g>
				
					<rect x="645.449" y="236.803" transform="matrix(0.706 -0.7082 0.7082 0.706 22.6718 535.0795)" style="fill:#FFB624;" width="20.787" height="6.856"/>
			</g>
		</g>
		<g style="clip-path:url(#SVGID_00000177456388828761880890000008176991937387953545_);">
			<g>
				<path style="fill:#FFB624;" d="M2.212,267.847c-21.041,0-38.158-17.118-38.158-38.158c0-21.041,17.117-38.158,38.158-38.158
					s38.158,17.118,38.158,38.158C40.371,250.729,23.253,267.847,2.212,267.847z M2.212,194.033
					c-19.66,0-35.655,15.995-35.655,35.655c0,19.661,15.995,35.656,35.655,35.656c19.661,0,35.656-15.995,35.656-35.656
					C37.868,210.028,21.873,194.033,2.212,194.033z"/>
			</g>
			<g>
				<path style="fill:#FFB624;" d="M2.212,261.747c-17.676,0-32.057-14.381-32.057-32.058c0-17.676,14.381-32.058,32.057-32.058
					c17.677,0,32.058,14.381,32.058,32.058C34.271,247.365,19.889,261.747,2.212,261.747z M2.212,200.134
					c-16.297,0-29.555,13.258-29.555,29.555c0,16.297,13.258,29.555,29.555,29.555s29.555-13.259,29.555-29.555
					C31.768,213.392,18.509,200.134,2.212,200.134z"/>
			</g>
			<g>
				<path style="fill:#FFB624;" d="M2.212,255.402c-14.178,0-25.713-11.535-25.713-25.713c0-14.178,11.535-25.714,25.713-25.714
					c14.179,0,25.714,11.535,25.714,25.714C27.926,243.867,16.391,255.402,2.212,255.402z M2.212,206.478
					c-12.799,0-23.211,10.412-23.211,23.211c0,12.799,10.412,23.211,23.211,23.211s23.211-10.412,23.211-23.211
					C25.424,216.89,15.011,206.478,2.212,206.478z"/>
			</g>
			<g>
				<path style="fill:#FFB624;" d="M2.212,248.814c-10.545,0-19.125-8.58-19.125-19.125c0-10.545,8.58-19.125,19.125-19.125
					c10.546,0,19.126,8.58,19.126,19.125C21.338,240.234,12.758,248.814,2.212,248.814z M2.212,213.066
					c-9.166,0-16.622,7.457-16.622,16.622c0,9.166,7.457,16.622,16.622,16.622s16.623-7.457,16.623-16.622
					C18.835,220.523,11.378,213.066,2.212,213.066z"/>
			</g>
			<g>
				<path style="fill:#FFB624;" d="M2.212,242.958c-7.316,0-13.268-5.952-13.268-13.269c0-7.316,5.952-13.269,13.268-13.269
					c7.317,0,13.269,5.952,13.269,13.269C15.482,237.005,9.529,242.958,2.212,242.958z M2.212,218.923
					c-5.936,0-10.766,4.829-10.766,10.766c0,5.937,4.829,10.766,10.766,10.766s10.767-4.83,10.767-10.766
					C12.979,223.752,8.149,218.923,2.212,218.923z"/>
			</g>
			<g>
				<path style="fill:#FFB624;" d="M9.606,229.689c0,4.083-3.31,7.393-7.394,7.393c-4.083,0-7.394-3.31-7.394-7.393
					c0-4.084,3.31-7.394,7.394-7.394C6.296,222.295,9.606,225.605,9.606,229.689z"/>
			</g>
		</g>
		<g style="clip-path:url(#SVGID_00000177456388828761880890000008176991937387953545_);">
			<g>
				<polygon style="fill:#42004C;" points="161.33,112.063 138.134,96.965 138.134,127.16 				"/>
			</g>
			<g>
				<path style="fill:#FFB624;" d="M130.969,141.07V83.056l44.568,29.007L130.969,141.07z M132.427,85.743v52.64l40.44-26.32
					L132.427,85.743z"/>
			</g>
			<g>
				<polygon style="fill:#FFB624;" points="112.365,112.063 94.683,100.554 94.683,123.572 				"/>
			</g>
			<g>
				<polygon style="fill:#FFB624;" points="96.973,112.063 79.291,100.554 79.291,123.572 				"/>
			</g>
		</g>
		<g style="clip-path:url(#SVGID_00000177456388828761880890000008176991937387953545_);">
			<path style="fill:#FFB624;" d="M192.201,78.178c-4.309,0-7.815-3.506-7.815-7.815c0-2.895,1.581-5.426,3.926-6.777
				c-2.344-1.35-3.926-3.882-3.926-6.777c0-2.895,1.581-5.426,3.926-6.777c-2.344-1.35-3.926-3.882-3.926-6.777
				s1.581-5.426,3.926-6.777c-2.344-1.351-3.926-3.883-3.926-6.777c0-2.895,1.581-5.426,3.926-6.777
				c-2.344-1.35-3.926-3.882-3.926-6.777c0-2.895,1.581-5.427,3.926-6.777c-2.344-1.35-3.926-3.882-3.926-6.777
				c0-4.309,3.506-7.815,7.815-7.815v1.899c-3.262,0-5.915,2.654-5.915,5.916c0,2.889,2.082,5.302,4.824,5.815
				c0.356-0.05,0.721-0.076,1.091-0.076h0.95v2.076h-0.95c-0.37,0-0.735-0.026-1.091-0.076c-2.743,0.513-4.824,2.925-4.824,5.815
				c0,2.889,2.082,5.302,4.824,5.815c0.356-0.05,0.721-0.076,1.091-0.076h0.95v2.076h-0.95c-0.37,0-0.735-0.026-1.091-0.076
				c-2.743,0.513-4.824,2.926-4.824,5.815c0,2.889,2.082,5.302,4.824,5.815c0.356-0.05,0.721-0.076,1.091-0.076h0.95v2.076h-0.95
				c-0.37,0-0.735-0.026-1.091-0.076c-2.743,0.513-4.824,2.926-4.824,5.815s2.082,5.302,4.824,5.815
				c0.356-0.05,0.721-0.076,1.091-0.076h0.95v2.076h-0.95c-0.37,0-0.735-0.026-1.091-0.076c-2.743,0.513-4.824,2.925-4.824,5.815
				c0,2.889,2.082,5.302,4.824,5.815c0.356-0.05,0.721-0.076,1.091-0.076h0.95v2.076h-0.95c-0.37,0-0.735-0.026-1.091-0.076
				c-2.743,0.513-4.824,2.926-4.824,5.815c0,3.262,2.653,5.916,5.915,5.916V78.178z"/>
		</g>
		<g style="clip-path:url(#SVGID_00000177456388828761880890000008176991937387953545_);">
			<circle style="fill:#42004C;" cx="630.346" cy="425.771" r="28.109"/>
		</g>
		<g style="clip-path:url(#SVGID_00000177456388828761880890000008176991937387953545_);">
			<g>
				<path style="fill:#FFB624;" d="M709.065,161.758c0,2.48-1.355,4.649-3.364,5.807c2.009,1.157,3.364,3.327,3.364,5.807
					c0,2.48-1.356,4.65-3.364,5.807c2.008,1.157,3.364,3.327,3.364,5.807c0,2.48-1.355,4.65-3.364,5.807
					c2.009,1.158,3.364,3.328,3.364,5.807c0,2.48-1.355,4.65-3.364,5.807c2.009,1.158,3.364,3.328,3.364,5.808
					s-1.356,4.65-3.364,5.807c2.008,1.157,3.364,3.327,3.364,5.807c0,3.693-3.004,6.697-6.697,6.697v-1.628
					c2.795,0,5.069-2.274,5.069-5.069c0-2.476-1.785-4.544-4.135-4.983c-0.305,0.043-0.618,0.065-0.934,0.065h-0.814v-1.779h0.814
					c0.316,0,0.629,0.022,0.934,0.065c2.35-0.439,4.135-2.507,4.135-4.983c0-2.476-1.783-4.543-4.133-4.983
					c-0.306,0.043-0.618,0.065-0.936,0.065h-0.814v-1.78h0.814c0.318,0,0.63,0.022,0.936,0.065c2.349-0.44,4.133-2.507,4.133-4.983
					c0-2.476-1.783-4.542-4.133-4.982c-0.306,0.043-0.618,0.065-0.936,0.065h-0.814v-1.779h0.814c0.318,0,0.63,0.022,0.936,0.065
					c2.349-0.44,4.133-2.508,4.133-4.983c0-2.477-1.785-4.544-4.135-4.983c-0.305,0.043-0.618,0.065-0.934,0.065h-0.814v-1.779
					h0.814c0.316,0,0.629,0.022,0.934,0.065c2.35-0.439,4.135-2.507,4.135-4.983c0-2.476-1.783-4.543-4.133-4.983
					c-0.306,0.043-0.618,0.065-0.936,0.065h-0.814v-1.78h0.814c0.318,0,0.63,0.022,0.936,0.065c2.349-0.44,4.133-2.507,4.133-4.982
					c0-2.795-2.274-5.07-5.069-5.07v-1.628C706.06,155.06,709.065,158.064,709.065,161.758z"/>
			</g>
			<g>
				<path style="fill:#FFB624;" d="M702.429,155.121c0,2.48-1.356,4.65-3.364,5.807c2.008,1.158,3.364,3.328,3.364,5.808
					c0,2.48-1.355,4.649-3.364,5.807c2.009,1.157,3.364,3.327,3.364,5.807c0,2.48-1.356,4.65-3.365,5.807
					c2.009,1.157,3.365,3.327,3.365,5.807c0,2.481-1.356,4.65-3.365,5.807c2.009,1.157,3.365,3.327,3.365,5.807
					c0,2.48-1.356,4.65-3.364,5.808c2.008,1.157,3.364,3.327,3.364,5.807c0,3.693-3.004,6.697-6.697,6.697v-1.628
					c2.795,0,5.07-2.274,5.07-5.069c0-2.476-1.784-4.543-4.134-4.983c-0.306,0.043-0.618,0.065-0.936,0.065h-0.814v-1.78h0.814
					c0.318,0,0.63,0.022,0.936,0.065c2.349-0.44,4.134-2.507,4.134-4.983c0-2.476-1.785-4.544-4.136-4.983
					c-0.305,0.043-0.617,0.065-0.934,0.065h-0.814v-1.779h0.814c0.316,0,0.629,0.022,0.934,0.065
					c2.351-0.439,4.136-2.507,4.136-4.983s-1.785-4.544-4.136-4.983c-0.305,0.043-0.617,0.065-0.934,0.065h-0.814v-1.779h0.814
					c0.316,0,0.629,0.022,0.934,0.065c2.351-0.439,4.136-2.507,4.136-4.983c0-2.476-1.784-4.543-4.134-4.983
					c-0.306,0.043-0.618,0.065-0.936,0.065h-0.814v-1.779h0.814c0.318,0,0.63,0.022,0.936,0.065c2.349-0.44,4.134-2.507,4.134-4.982
					c0-2.476-1.784-4.543-4.134-4.983c-0.306,0.043-0.618,0.065-0.936,0.065h-0.814v-1.779h0.814c0.318,0,0.63,0.022,0.936,0.065
					c2.349-0.44,4.134-2.508,4.134-4.983c0-2.795-2.275-5.069-5.07-5.069v-1.628C699.425,148.425,702.429,151.429,702.429,155.121z"
					/>
			</g>
			<g>
				<path style="fill:#FFB624;" d="M695.793,148.486c0,2.481-1.356,4.65-3.364,5.807c2.008,1.157,3.364,3.327,3.364,5.807
					c0,2.48-1.355,4.65-3.364,5.808c2.009,1.157,3.364,3.327,3.364,5.807c0,2.48-1.355,4.649-3.364,5.807
					c2.009,1.157,3.364,3.327,3.364,5.807c0,2.48-1.356,4.65-3.364,5.807c2.008,1.157,3.364,3.327,3.364,5.807
					c0,2.48-1.356,4.65-3.364,5.807c2.008,1.157,3.364,3.327,3.364,5.807c0,3.693-3.004,6.697-6.697,6.697v-1.628
					c2.795,0,5.069-2.275,5.069-5.07c0-2.477-1.785-4.544-4.135-4.983c-0.305,0.043-0.617,0.065-0.934,0.065h-0.814v-1.779h0.814
					c0.316,0,0.629,0.022,0.934,0.065c2.35-0.439,4.135-2.507,4.135-4.983s-1.785-4.544-4.135-4.983
					c-0.305,0.043-0.617,0.065-0.934,0.065h-0.814v-1.779h0.814c0.316,0,0.629,0.022,0.934,0.065c2.35-0.44,4.135-2.507,4.135-4.983
					c0-2.476-1.784-4.543-4.133-4.983c-0.306,0.043-0.618,0.065-0.936,0.065h-0.814v-1.779h0.814c0.318,0,0.63,0.022,0.936,0.065
					c2.349-0.44,4.133-2.507,4.133-4.982c0-2.476-1.784-4.543-4.133-4.983c-0.306,0.043-0.618,0.065-0.936,0.065h-0.814v-1.78h0.814
					c0.318,0,0.63,0.022,0.936,0.065c2.349-0.44,4.133-2.507,4.133-4.983c0-2.477-1.785-4.544-4.135-4.983
					c-0.305,0.043-0.617,0.065-0.934,0.065h-0.814v-1.779h0.814c0.316,0,0.629,0.022,0.934,0.065
					c2.35-0.439,4.135-2.507,4.135-4.983c0-2.795-2.274-5.069-5.069-5.069v-1.628C692.789,141.789,695.793,144.793,695.793,148.486z
					"/>
			</g>
		</g>
		<g style="clip-path:url(#SVGID_00000177456388828761880890000008176991937387953545_);">
			<g>
				<polygon style="fill:#42004C;" points="85.174,200.048 102.722,200.048 93.948,186.568 				"/>
			</g>
			<g>
				<polygon style="fill:#42004C;" points="76.099,213.858 93.647,213.858 84.873,200.377 				"/>
			</g>
			<g>
				<polygon style="fill:#42004C;" points="67.024,227.667 84.572,227.667 75.798,214.186 				"/>
			</g>
			<g>
				<polygon style="fill:#42004C;" points="67.506,200.005 85.054,200.005 76.28,186.524 				"/>
			</g>
			<g>
				<polygon style="fill:#42004C;" points="49.357,200.005 66.905,200.005 58.131,186.524 				"/>
			</g>
			<g>
				<polygon style="fill:#42004C;" points="58.432,213.814 75.98,213.814 67.206,200.333 				"/>
			</g>
		</g>
		<g style="clip-path:url(#SVGID_00000177456388828761880890000008176991937387953545_);">
			<g>
				
					<rect x="129.319" y="252.795" transform="matrix(0.7082 -0.706 0.706 0.7082 -145.5702 169.2267)" style="fill:#FFB624;" width="5.222" height="15.833"/>
			</g>
			<g>
				
					<rect x="124.014" y="258.1" transform="matrix(0.706 -0.7082 0.7082 0.706 -145.847 170.0705)" style="fill:#FFB624;" width="15.833" height="5.222"/>
			</g>
		</g>
		<g style="clip-path:url(#SVGID_00000177456388828761880890000008176991937387953545_);">
			<g>
				<path style="fill:#DBDBDB;" d="M787.734,79.782c-0.939-23.215-19.99-41.748-43.365-41.748
					c-23.375,0-42.427,18.533-43.365,41.748H787.734z"/>
			</g>
			<g>
				<path style="fill:#FFB624;" d="M769.431,87.724c-0.543-13.417-11.553-24.128-25.062-24.128
					c-13.509,0-24.52,10.711-25.062,24.128H769.431z"/>
			</g>
		</g>
		<g style="clip-path:url(#SVGID_00000177456388828761880890000008176991937387953545_);">
			<g>
				<path style="fill:#DBDBDB;" d="M552.082,239.037c-17.456,0.706-31.393,15.031-31.393,32.609s13.936,31.903,31.393,32.609
					V239.037z"/>
			</g>
			<g>
				<path style="fill:#FFB624;" d="M558.054,252.8c-10.089,0.408-18.143,8.687-18.143,18.846s8.054,18.438,18.143,18.846V252.8z"/>
			</g>
		</g>
		<g style="clip-path:url(#SVGID_00000177456388828761880890000008176991937387953545_);">
			<g>
				<path style="fill:#FFB624;" d="M523.82,544.911c-26.258,0-47.619-21.362-47.619-47.62c0-26.258,21.362-47.62,47.619-47.62
					c26.258,0,47.62,21.362,47.62,47.62C571.44,523.549,550.078,544.911,523.82,544.911z M523.82,452.795
					c-24.535,0-44.496,19.961-44.496,44.497c0,24.536,19.961,44.497,44.496,44.497c24.536,0,44.497-19.961,44.497-44.497
					C568.317,472.756,548.356,452.795,523.82,452.795z"/>
			</g>
			<g>
				<path style="fill:#FFB624;" d="M523.82,537.298c-22.059,0-40.007-17.947-40.007-40.007c0-22.059,17.947-40.007,40.007-40.007
					c22.06,0,40.007,17.947,40.007,40.007C563.827,519.351,545.88,537.298,523.82,537.298z M523.82,460.408
					c-20.338,0-36.883,16.546-36.883,36.883c0,20.338,16.546,36.884,36.883,36.884c20.338,0,36.884-16.546,36.884-36.884
					C560.704,476.954,544.158,460.408,523.82,460.408z"/>
			</g>
			<g>
				<path style="fill:#FFB624;" d="M523.82,529.381c-17.694,0-32.089-14.395-32.089-32.09c0-17.694,14.395-32.089,32.089-32.089
					c17.695,0,32.09,14.395,32.09,32.089C555.91,514.985,541.515,529.381,523.82,529.381z M523.82,468.325
					c-15.972,0-28.966,12.994-28.966,28.966c0,15.972,12.994,28.966,28.966,28.966c15.972,0,28.967-12.994,28.967-28.966
					C552.787,481.319,539.792,468.325,523.82,468.325z"/>
			</g>
			<g>
				<path style="fill:#FFB624;" d="M523.82,521.158c-13.16,0-23.867-10.707-23.867-23.867c0-13.16,10.707-23.867,23.867-23.867
					c13.161,0,23.868,10.707,23.868,23.867C547.688,510.451,536.981,521.158,523.82,521.158z M523.82,476.547
					c-11.438,0-20.744,9.306-20.744,20.744c0,11.438,9.306,20.744,20.744,20.744c11.438,0,20.745-9.306,20.745-20.744
					C544.565,485.853,535.258,476.547,523.82,476.547z"/>
			</g>
			<g>
				<path style="fill:#FFB624;" d="M523.82,513.851c-9.13,0-16.559-7.428-16.559-16.559c0-9.13,7.428-16.559,16.559-16.559
					c9.131,0,16.559,7.428,16.559,16.559C540.38,506.422,532.951,513.851,523.82,513.851z M523.82,483.856
					c-7.409,0-13.435,6.027-13.435,13.435c0,7.409,6.027,13.436,13.435,13.436c7.408,0,13.436-6.028,13.436-13.436
					C537.256,489.883,531.229,483.856,523.82,483.856z"/>
			</g>
			<g>
				
					<ellipse transform="matrix(0.1602 -0.9871 0.9871 0.1602 -50.956 934.6909)" style="fill:#FFB624;" cx="523.82" cy="497.291" rx="9.227" ry="9.227"/>
			</g>
		</g>
		<g style="clip-path:url(#SVGID_00000177456388828761880890000008176991937387953545_);">
			<path style="fill:#42004C;" d="M42.394,152.406h-2.932v-1.343c0-0.514,0.036-1.019,0.105-1.514
				c-0.712-3.793-4.049-6.672-8.045-6.672c-4.513,0-8.186,3.672-8.186,8.186H20.65c0-5.995,4.877-10.872,10.872-10.872
				c4.011,0,7.522,2.184,9.406,5.424c1.884-3.24,5.395-5.424,9.406-5.424c5.995,0,10.872,4.877,10.872,10.872H58.52
				c0-4.514-3.672-8.186-8.186-8.186c-3.996,0-7.333,2.879-8.045,6.672c0.069,0.495,0.105,1,0.105,1.514V152.406z"/>
		</g>
		<g style="clip-path:url(#SVGID_00000177456388828761880890000008176991937387953545_);">
			<path style="fill:#42004C;" d="M42.561,453.112l-2.073,2.073l-0.95-0.95c-0.363-0.363-0.695-0.746-0.996-1.145
				c-3.186-2.178-7.581-1.855-10.407,0.971c-3.191,3.191-3.192,8.385,0,11.576l-1.9,1.9c-4.239-4.239-4.239-11.137,0-15.376
				c2.836-2.836,6.863-3.775,10.487-2.816c-0.959-3.624-0.021-7.651,2.816-10.487c4.239-4.239,11.137-4.239,15.376,0l-1.9,1.9
				c-3.192-3.192-8.385-3.191-11.576,0c-2.826,2.826-3.149,7.221-0.971,10.406c0.399,0.302,0.782,0.633,1.145,0.996L42.561,453.112z
				"/>
		</g>
		<g style="clip-path:url(#SVGID_00000177456388828761880890000008176991937387953545_);">
			<g>
				<path style="fill:#DBDBDB;" d="M518.918,427.71c-24.142,0-43.784-19.641-43.784-43.784c0-24.143,19.641-43.784,43.784-43.784
					v19.59c-13.34,0-24.193,10.853-24.193,24.193c0,13.34,10.853,24.193,24.193,24.193V427.71z"/>
			</g>
			<g>
				<path style="fill:#42004C;" d="M524.915,412.375c-21.282,0-38.597-17.315-38.597-38.597c0-21.283,17.315-38.598,38.597-38.598
					v9.219c-16.198,0-29.378,13.179-29.378,29.379c0,16.199,13.179,29.378,29.378,29.378V412.375z"/>
			</g>
			<g>
				<defs>
					
						<ellipse id="SVGID_00000065753781438136254830000013140664995815292306_" transform="matrix(0.982 -0.1891 0.1891 0.982 -61.1087 110.3817)" cx="547.876" cy="375.417" rx="30.87" ry="30.87"/>
				</defs>
				<clipPath id="SVGID_00000028299199413579376620000017150913961125749127_">
					<use xlink:href="#SVGID_00000065753781438136254830000013140664995815292306_"  style="overflow:visible;"/>
				</clipPath>
				<g style="clip-path:url(#SVGID_00000028299199413579376620000017150913961125749127_);">
					<g>
						<g>
							<g>
								<path style="fill:#FFB624;" d="M572.437,347.242c-0.756,0-1.37-0.611-1.37-1.366s0.613-1.366,1.37-1.366
									c0.756,0,1.37,0.611,1.37,1.366S573.194,347.242,572.437,347.242z"/>
							</g>
							<g>
								<path style="fill:#FFB624;" d="M556.905,347.242c-0.756,0-1.37-0.611-1.37-1.366s0.613-1.366,1.37-1.366
									c0.757,0,1.37,0.611,1.37,1.366S557.661,347.242,556.905,347.242z"/>
							</g>
							<g>
								<path style="fill:#FFB624;" d="M541.372,347.242c-0.757,0-1.37-0.611-1.37-1.366s0.613-1.366,1.37-1.366
									c0.756,0,1.37,0.611,1.37,1.366S542.129,347.242,541.372,347.242z"/>
							</g>
							<g>
								<path style="fill:#FFB624;" d="M525.84,347.242c-0.757,0-1.37-0.611-1.37-1.366s0.613-1.366,1.37-1.366
									c0.756,0,1.37,0.611,1.37,1.366S526.596,347.242,525.84,347.242z"/>
							</g>
						</g>
						<g>
							<g>
								<path style="fill:#FFB624;" d="M572.437,364.147c-0.756,0-1.37-0.611-1.37-1.366s0.613-1.366,1.37-1.366
									c0.756,0,1.37,0.611,1.37,1.366S573.194,364.147,572.437,364.147z"/>
							</g>
							<g>
								<path style="fill:#FFB624;" d="M556.905,364.147c-0.756,0-1.37-0.611-1.37-1.366s0.613-1.366,1.37-1.366
									c0.757,0,1.37,0.611,1.37,1.366S557.661,364.147,556.905,364.147z"/>
							</g>
							<g>
								<path style="fill:#FFB624;" d="M541.372,364.147c-0.757,0-1.37-0.611-1.37-1.366s0.613-1.366,1.37-1.366
									c0.756,0,1.37,0.611,1.37,1.366S542.129,364.147,541.372,364.147z"/>
							</g>
							<g>
								<path style="fill:#FFB624;" d="M525.84,364.147c-0.757,0-1.37-0.611-1.37-1.366s0.613-1.366,1.37-1.366
									c0.756,0,1.37,0.611,1.37,1.366S526.596,364.147,525.84,364.147z"/>
							</g>
						</g>
						<g>
							<g>
								<path style="fill:#FFB624;" d="M572.437,381.052c-0.756,0-1.37-0.611-1.37-1.366c0-0.754,0.613-1.366,1.37-1.366
									c0.756,0,1.37,0.612,1.37,1.366C573.807,380.44,573.194,381.052,572.437,381.052z"/>
							</g>
							<g>
								<path style="fill:#FFB624;" d="M556.905,381.052c-0.756,0-1.37-0.611-1.37-1.366c0-0.754,0.613-1.366,1.37-1.366
									c0.757,0,1.37,0.612,1.37,1.366C558.274,380.44,557.661,381.052,556.905,381.052z"/>
							</g>
							<g>
								<path style="fill:#FFB624;" d="M541.372,381.052c-0.757,0-1.37-0.611-1.37-1.366c0-0.754,0.613-1.366,1.37-1.366
									c0.756,0,1.37,0.612,1.37,1.366C542.742,380.44,542.129,381.052,541.372,381.052z"/>
							</g>
							<g>
								<path style="fill:#FFB624;" d="M525.84,381.052c-0.757,0-1.37-0.611-1.37-1.366c0-0.754,0.613-1.366,1.37-1.366
									c0.756,0,1.37,0.612,1.37,1.366C527.21,380.44,526.596,381.052,525.84,381.052z"/>
							</g>
						</g>
						<g>
							<g>
								<path style="fill:#FFB624;" d="M572.437,397.957c-0.756,0-1.37-0.611-1.37-1.366c0-0.754,0.613-1.366,1.37-1.366
									c0.756,0,1.37,0.612,1.37,1.366C573.807,397.345,573.194,397.957,572.437,397.957z"/>
							</g>
							<g>
								<path style="fill:#FFB624;" d="M556.905,397.957c-0.756,0-1.37-0.611-1.37-1.366c0-0.754,0.613-1.366,1.37-1.366
									c0.757,0,1.37,0.612,1.37,1.366C558.274,397.345,557.661,397.957,556.905,397.957z"/>
							</g>
							<g>
								<path style="fill:#FFB624;" d="M541.372,397.957c-0.757,0-1.37-0.611-1.37-1.366c0-0.754,0.613-1.366,1.37-1.366
									c0.756,0,1.37,0.612,1.37,1.366C542.742,397.345,542.129,397.957,541.372,397.957z"/>
							</g>
							<g>
								<path style="fill:#FFB624;" d="M525.84,397.957c-0.757,0-1.37-0.611-1.37-1.366c0-0.754,0.613-1.366,1.37-1.366
									c0.756,0,1.37,0.612,1.37,1.366C527.21,397.345,526.596,397.957,525.84,397.957z"/>
							</g>
						</g>
					</g>
					<g>
						<g>
							<g>
								<path style="fill:#FFB624;" d="M572.437,355.572c-0.756,0-1.37-0.611-1.37-1.366c0-0.754,0.613-1.366,1.37-1.366
									c0.756,0,1.37,0.612,1.37,1.366C573.807,354.961,573.194,355.572,572.437,355.572z"/>
							</g>
							<g>
								<path style="fill:#FFB624;" d="M556.905,355.572c-0.756,0-1.37-0.611-1.37-1.366c0-0.754,0.613-1.366,1.37-1.366
									c0.757,0,1.37,0.612,1.37,1.366C558.274,354.961,557.661,355.572,556.905,355.572z"/>
							</g>
							<g>
								<path style="fill:#FFB624;" d="M541.372,355.572c-0.757,0-1.37-0.611-1.37-1.366c0-0.754,0.613-1.366,1.37-1.366
									c0.756,0,1.37,0.612,1.37,1.366C542.742,354.961,542.129,355.572,541.372,355.572z"/>
							</g>
							<g>
								<path style="fill:#FFB624;" d="M525.84,355.572c-0.757,0-1.37-0.611-1.37-1.366c0-0.754,0.613-1.366,1.37-1.366
									c0.756,0,1.37,0.612,1.37,1.366C527.21,354.961,526.596,355.572,525.84,355.572z"/>
							</g>
						</g>
						<g>
							<g>
								<path style="fill:#FFB624;" d="M572.437,372.477c-0.756,0-1.37-0.612-1.37-1.366c0-0.754,0.613-1.366,1.37-1.366
									c0.756,0,1.37,0.612,1.37,1.366C573.807,371.866,573.194,372.477,572.437,372.477z"/>
							</g>
							<g>
								<path style="fill:#FFB624;" d="M556.905,372.477c-0.756,0-1.37-0.612-1.37-1.366c0-0.754,0.613-1.366,1.37-1.366
									c0.757,0,1.37,0.612,1.37,1.366C558.274,371.866,557.661,372.477,556.905,372.477z"/>
							</g>
							<g>
								<path style="fill:#FFB624;" d="M541.372,372.477c-0.757,0-1.37-0.612-1.37-1.366c0-0.754,0.613-1.366,1.37-1.366
									c0.756,0,1.37,0.612,1.37,1.366C542.742,371.866,542.129,372.477,541.372,372.477z"/>
							</g>
							<g>
								<path style="fill:#FFB624;" d="M525.84,372.477c-0.757,0-1.37-0.612-1.37-1.366c0-0.754,0.613-1.366,1.37-1.366
									c0.756,0,1.37,0.612,1.37,1.366C527.21,371.866,526.596,372.477,525.84,372.477z"/>
							</g>
						</g>
						<g>
							<g>
								<path style="fill:#FFB624;" d="M572.437,389.382c-0.756,0-1.37-0.611-1.37-1.366s0.613-1.366,1.37-1.366
									c0.756,0,1.37,0.611,1.37,1.366S573.194,389.382,572.437,389.382z"/>
							</g>
							<g>
								<path style="fill:#FFB624;" d="M556.905,389.382c-0.756,0-1.37-0.611-1.37-1.366s0.613-1.366,1.37-1.366
									c0.757,0,1.37,0.611,1.37,1.366S557.661,389.382,556.905,389.382z"/>
							</g>
							<g>
								<path style="fill:#FFB624;" d="M541.372,389.382c-0.757,0-1.37-0.611-1.37-1.366s0.613-1.366,1.37-1.366
									c0.756,0,1.37,0.611,1.37,1.366S542.129,389.382,541.372,389.382z"/>
							</g>
							<g>
								<path style="fill:#FFB624;" d="M525.84,389.382c-0.757,0-1.37-0.611-1.37-1.366s0.613-1.366,1.37-1.366
									c0.756,0,1.37,0.611,1.37,1.366S526.596,389.382,525.84,389.382z"/>
							</g>
						</g>
						<g>
							<g>
								<path style="fill:#FFB624;" d="M572.437,406.287c-0.756,0-1.37-0.611-1.37-1.366c0-0.754,0.613-1.366,1.37-1.366
									c0.756,0,1.37,0.611,1.37,1.366C573.807,405.676,573.194,406.287,572.437,406.287z"/>
							</g>
							<g>
								<path style="fill:#FFB624;" d="M556.905,406.287c-0.756,0-1.37-0.611-1.37-1.366c0-0.754,0.613-1.366,1.37-1.366
									c0.757,0,1.37,0.611,1.37,1.366C558.274,405.676,557.661,406.287,556.905,406.287z"/>
							</g>
							<g>
								<path style="fill:#FFB624;" d="M541.372,406.287c-0.757,0-1.37-0.611-1.37-1.366c0-0.754,0.613-1.366,1.37-1.366
									c0.756,0,1.37,0.611,1.37,1.366C542.742,405.676,542.129,406.287,541.372,406.287z"/>
							</g>
							<g>
								<path style="fill:#FFB624;" d="M525.84,406.287c-0.757,0-1.37-0.611-1.37-1.366c0-0.754,0.613-1.366,1.37-1.366
									c0.756,0,1.37,0.611,1.37,1.366C527.21,405.676,526.596,406.287,525.84,406.287z"/>
							</g>
						</g>
					</g>
					<g>
						<g>
							<g>
								<path style="fill:#FFB624;" d="M580.505,347.242c-0.756,0-1.37-0.611-1.37-1.366s0.613-1.366,1.37-1.366
									c0.757,0,1.37,0.611,1.37,1.366S581.262,347.242,580.505,347.242z"/>
							</g>
							<g>
								<path style="fill:#FFB624;" d="M564.973,347.242c-0.756,0-1.37-0.611-1.37-1.366s0.613-1.366,1.37-1.366
									c0.756,0,1.37,0.611,1.37,1.366S565.729,347.242,564.973,347.242z"/>
							</g>
							<g>
								<path style="fill:#FFB624;" d="M549.441,347.242c-0.756,0-1.37-0.611-1.37-1.366s0.613-1.366,1.37-1.366
									c0.756,0,1.37,0.611,1.37,1.366S550.197,347.242,549.441,347.242z"/>
							</g>
							<g>
								<path style="fill:#FFB624;" d="M533.908,347.242c-0.756,0-1.37-0.611-1.37-1.366s0.613-1.366,1.37-1.366
									c0.757,0,1.37,0.611,1.37,1.366S534.665,347.242,533.908,347.242z"/>
							</g>
							<g>
								<path style="fill:#FFB624;" d="M518.376,347.242c-0.756,0-1.37-0.611-1.37-1.366s0.613-1.366,1.37-1.366
									c0.757,0,1.37,0.611,1.37,1.366S519.132,347.242,518.376,347.242z"/>
							</g>
						</g>
						<g>
							<g>
								<path style="fill:#FFB624;" d="M580.505,364.147c-0.756,0-1.37-0.611-1.37-1.366s0.613-1.366,1.37-1.366
									c0.757,0,1.37,0.611,1.37,1.366S581.262,364.147,580.505,364.147z"/>
							</g>
							<g>
								<path style="fill:#FFB624;" d="M564.973,364.147c-0.756,0-1.37-0.611-1.37-1.366s0.613-1.366,1.37-1.366
									c0.756,0,1.37,0.611,1.37,1.366S565.729,364.147,564.973,364.147z"/>
							</g>
							<g>
								<path style="fill:#FFB624;" d="M549.441,364.147c-0.756,0-1.37-0.611-1.37-1.366s0.613-1.366,1.37-1.366
									c0.756,0,1.37,0.611,1.37,1.366S550.197,364.147,549.441,364.147z"/>
							</g>
							<g>
								<path style="fill:#FFB624;" d="M533.908,364.147c-0.756,0-1.37-0.611-1.37-1.366s0.613-1.366,1.37-1.366
									c0.757,0,1.37,0.611,1.37,1.366S534.665,364.147,533.908,364.147z"/>
							</g>
							<g>
								<path style="fill:#FFB624;" d="M518.376,364.147c-0.756,0-1.37-0.611-1.37-1.366s0.613-1.366,1.37-1.366
									c0.757,0,1.37,0.611,1.37,1.366S519.132,364.147,518.376,364.147z"/>
							</g>
						</g>
						<g>
							<g>
								<path style="fill:#FFB624;" d="M580.505,381.052c-0.756,0-1.37-0.611-1.37-1.366c0-0.754,0.613-1.366,1.37-1.366
									c0.757,0,1.37,0.612,1.37,1.366C581.875,380.44,581.262,381.052,580.505,381.052z"/>
							</g>
							<g>
								<path style="fill:#FFB624;" d="M564.973,381.052c-0.756,0-1.37-0.611-1.37-1.366c0-0.754,0.613-1.366,1.37-1.366
									c0.756,0,1.37,0.612,1.37,1.366C566.343,380.44,565.729,381.052,564.973,381.052z"/>
							</g>
							<g>
								<path style="fill:#FFB624;" d="M549.441,381.052c-0.756,0-1.37-0.611-1.37-1.366c0-0.754,0.613-1.366,1.37-1.366
									c0.756,0,1.37,0.612,1.37,1.366C550.81,380.44,550.197,381.052,549.441,381.052z"/>
							</g>
							<g>
								<path style="fill:#FFB624;" d="M533.908,381.052c-0.756,0-1.37-0.611-1.37-1.366c0-0.754,0.613-1.366,1.37-1.366
									c0.757,0,1.37,0.612,1.37,1.366C535.278,380.44,534.665,381.052,533.908,381.052z"/>
							</g>
							<g>
								<path style="fill:#FFB624;" d="M518.376,381.052c-0.756,0-1.37-0.611-1.37-1.366c0-0.754,0.613-1.366,1.37-1.366
									c0.757,0,1.37,0.612,1.37,1.366C519.746,380.44,519.132,381.052,518.376,381.052z"/>
							</g>
						</g>
						<g>
							<g>
								<path style="fill:#FFB624;" d="M580.505,397.957c-0.756,0-1.37-0.611-1.37-1.366c0-0.754,0.613-1.366,1.37-1.366
									c0.757,0,1.37,0.612,1.37,1.366C581.875,397.345,581.262,397.957,580.505,397.957z"/>
							</g>
							<g>
								<path style="fill:#FFB624;" d="M564.973,397.957c-0.756,0-1.37-0.611-1.37-1.366c0-0.754,0.613-1.366,1.37-1.366
									c0.756,0,1.37,0.612,1.37,1.366C566.343,397.345,565.729,397.957,564.973,397.957z"/>
							</g>
							<g>
								<path style="fill:#FFB624;" d="M549.441,397.957c-0.756,0-1.37-0.611-1.37-1.366c0-0.754,0.613-1.366,1.37-1.366
									c0.756,0,1.37,0.612,1.37,1.366C550.81,397.345,550.197,397.957,549.441,397.957z"/>
							</g>
							<g>
								<ellipse style="fill:#FFB624;" cx="533.908" cy="396.591" rx="1.37" ry="1.366"/>
							</g>
							<g>
								<ellipse style="fill:#FFB624;" cx="518.376" cy="396.591" rx="1.37" ry="1.366"/>
							</g>
						</g>
					</g>
					<g>
						<g>
							<g>
								<path style="fill:#FFB624;" d="M580.505,355.572c-0.756,0-1.37-0.611-1.37-1.366c0-0.754,0.613-1.366,1.37-1.366
									c0.757,0,1.37,0.612,1.37,1.366C581.875,354.961,581.262,355.572,580.505,355.572z"/>
							</g>
							<g>
								<path style="fill:#FFB624;" d="M564.973,355.572c-0.756,0-1.37-0.611-1.37-1.366c0-0.754,0.613-1.366,1.37-1.366
									c0.756,0,1.37,0.612,1.37,1.366C566.343,354.961,565.729,355.572,564.973,355.572z"/>
							</g>
							<g>
								<path style="fill:#FFB624;" d="M549.441,355.572c-0.756,0-1.37-0.611-1.37-1.366c0-0.754,0.613-1.366,1.37-1.366
									c0.756,0,1.37,0.612,1.37,1.366C550.81,354.961,550.197,355.572,549.441,355.572z"/>
							</g>
							<g>
								<path style="fill:#FFB624;" d="M533.908,355.572c-0.756,0-1.37-0.611-1.37-1.366c0-0.754,0.613-1.366,1.37-1.366
									c0.757,0,1.37,0.612,1.37,1.366C535.278,354.961,534.665,355.572,533.908,355.572z"/>
							</g>
							<g>
								<path style="fill:#FFB624;" d="M518.376,355.572c-0.756,0-1.37-0.611-1.37-1.366c0-0.754,0.613-1.366,1.37-1.366
									c0.757,0,1.37,0.612,1.37,1.366C519.746,354.961,519.132,355.572,518.376,355.572z"/>
							</g>
						</g>
						<g>
							<g>
								<path style="fill:#FFB624;" d="M580.505,372.477c-0.756,0-1.37-0.612-1.37-1.366c0-0.754,0.613-1.366,1.37-1.366
									c0.757,0,1.37,0.612,1.37,1.366C581.875,371.866,581.262,372.477,580.505,372.477z"/>
							</g>
							<g>
								<path style="fill:#FFB624;" d="M564.973,372.477c-0.756,0-1.37-0.612-1.37-1.366c0-0.754,0.613-1.366,1.37-1.366
									c0.756,0,1.37,0.612,1.37,1.366C566.343,371.866,565.729,372.477,564.973,372.477z"/>
							</g>
							<g>
								<path style="fill:#FFB624;" d="M549.441,372.477c-0.756,0-1.37-0.612-1.37-1.366c0-0.754,0.613-1.366,1.37-1.366
									c0.756,0,1.37,0.612,1.37,1.366C550.81,371.866,550.197,372.477,549.441,372.477z"/>
							</g>
							<g>
								<ellipse style="fill:#FFB624;" cx="533.908" cy="371.111" rx="1.37" ry="1.366"/>
							</g>
							<g>
								<ellipse style="fill:#FFB624;" cx="518.376" cy="371.111" rx="1.37" ry="1.366"/>
							</g>
						</g>
						<g>
							<g>
								<path style="fill:#FFB624;" d="M580.505,389.382c-0.756,0-1.37-0.611-1.37-1.366s0.613-1.366,1.37-1.366
									c0.757,0,1.37,0.611,1.37,1.366S581.262,389.382,580.505,389.382z"/>
							</g>
							<g>
								<path style="fill:#FFB624;" d="M564.973,389.382c-0.756,0-1.37-0.611-1.37-1.366s0.613-1.366,1.37-1.366
									c0.756,0,1.37,0.611,1.37,1.366S565.729,389.382,564.973,389.382z"/>
							</g>
							<g>
								<path style="fill:#FFB624;" d="M549.441,389.382c-0.756,0-1.37-0.611-1.37-1.366s0.613-1.366,1.37-1.366
									c0.756,0,1.37,0.611,1.37,1.366S550.197,389.382,549.441,389.382z"/>
							</g>
							<g>
								<path style="fill:#FFB624;" d="M533.908,389.382c-0.756,0-1.37-0.611-1.37-1.366s0.613-1.366,1.37-1.366
									c0.757,0,1.37,0.611,1.37,1.366S534.665,389.382,533.908,389.382z"/>
							</g>
							<g>
								<path style="fill:#FFB624;" d="M518.376,389.382c-0.756,0-1.37-0.611-1.37-1.366s0.613-1.366,1.37-1.366
									c0.757,0,1.37,0.611,1.37,1.366S519.132,389.382,518.376,389.382z"/>
							</g>
						</g>
						<g>
							<g>
								<path style="fill:#FFB624;" d="M580.505,406.287c-0.756,0-1.37-0.611-1.37-1.366c0-0.754,0.613-1.366,1.37-1.366
									c0.757,0,1.37,0.611,1.37,1.366C581.875,405.676,581.262,406.287,580.505,406.287z"/>
							</g>
							<g>
								<path style="fill:#FFB624;" d="M564.973,406.287c-0.756,0-1.37-0.611-1.37-1.366c0-0.754,0.613-1.366,1.37-1.366
									c0.756,0,1.37,0.611,1.37,1.366C566.343,405.676,565.729,406.287,564.973,406.287z"/>
							</g>
							<g>
								<path style="fill:#FFB624;" d="M549.441,406.287c-0.756,0-1.37-0.611-1.37-1.366c0-0.754,0.613-1.366,1.37-1.366
									c0.756,0,1.37,0.611,1.37,1.366C550.81,405.676,550.197,406.287,549.441,406.287z"/>
							</g>
							<g>
								<path style="fill:#FFB624;" d="M533.908,406.287c-0.756,0-1.37-0.611-1.37-1.366c0-0.754,0.613-1.366,1.37-1.366
									c0.757,0,1.37,0.611,1.37,1.366C535.278,405.676,534.665,406.287,533.908,406.287z"/>
							</g>
							<g>
								<path style="fill:#FFB624;" d="M518.376,406.287c-0.756,0-1.37-0.611-1.37-1.366c0-0.754,0.613-1.366,1.37-1.366
									c0.757,0,1.37,0.611,1.37,1.366C519.746,405.676,519.132,406.287,518.376,406.287z"/>
							</g>
						</g>
					</g>
				</g>
			</g>
		</g>
		<g style="clip-path:url(#SVGID_00000177456388828761880890000008176991937387953545_);">
			<g>
				<g>
					<path style="fill:#DBDBDB;" d="M643.334,31.388c0,2.365-1.917,4.282-4.282,4.282c-2.365,0-4.282-1.917-4.282-4.282
						c0-2.365,1.917-4.282,4.282-4.282C641.417,27.106,643.334,29.023,643.334,31.388z"/>
				</g>
				<g>
					<path style="fill:#DBDBDB;" d="M656.181,31.388c0,2.365-1.917,4.282-4.282,4.282c-2.365,0-4.282-1.917-4.282-4.282
						c0-2.365,1.917-4.282,4.282-4.282C654.263,27.106,656.181,29.023,656.181,31.388z"/>
				</g>
				<g>
					<circle style="fill:#DBDBDB;" cx="664.745" cy="31.388" r="4.282"/>
				</g>
				<g>
					<path style="fill:#DBDBDB;" d="M643.334,43.517c0,2.365-1.917,4.282-4.282,4.282c-2.365,0-4.282-1.917-4.282-4.282
						c0-2.365,1.917-4.282,4.282-4.282C641.417,39.235,643.334,41.152,643.334,43.517z"/>
				</g>
				<g>
					<path style="fill:#DBDBDB;" d="M656.181,43.517c0,2.365-1.917,4.282-4.282,4.282c-2.365,0-4.282-1.917-4.282-4.282
						c0-2.365,1.917-4.282,4.282-4.282C654.263,39.235,656.181,41.152,656.181,43.517z"/>
				</g>
				<g>
					<circle style="fill:#DBDBDB;" cx="664.745" cy="43.517" r="4.282"/>
				</g>
				<g>
					<path style="fill:#DBDBDB;" d="M643.334,55.646c0,2.365-1.917,4.282-4.282,4.282c-2.365,0-4.282-1.917-4.282-4.282
						c0-2.365,1.917-4.282,4.282-4.282C641.417,51.364,643.334,53.281,643.334,55.646z"/>
				</g>
				<g>
					<path style="fill:#DBDBDB;" d="M656.181,55.646c0,2.365-1.917,4.282-4.282,4.282c-2.365,0-4.282-1.917-4.282-4.282
						c0-2.365,1.917-4.282,4.282-4.282C654.263,51.364,656.181,53.281,656.181,55.646z"/>
				</g>
				<g>
					<path style="fill:#DBDBDB;" d="M669.027,55.646c0,2.365-1.917,4.282-4.282,4.282c-2.365,0-4.282-1.917-4.282-4.282
						c0-2.365,1.917-4.282,4.282-4.282C667.11,51.364,669.027,53.281,669.027,55.646z"/>
				</g>
			</g>
		</g>
		<g style="clip-path:url(#SVGID_00000177456388828761880890000008176991937387953545_);">
			<g>
				<g>
					<path style="fill:#DBDBDB;" d="M-177.986,357.775c0,2.056-1.667,3.724-3.723,3.724c-2.057,0-3.723-1.667-3.723-3.724
						c0-2.056,1.667-3.723,3.723-3.723C-179.653,354.052-177.986,355.719-177.986,357.775z"/>
				</g>
				<g>
					<path style="fill:#DBDBDB;" d="M-166.815,357.775c0,2.056-1.667,3.724-3.723,3.724c-2.057,0-3.723-1.667-3.723-3.724
						c0-2.056,1.667-3.723,3.723-3.723C-168.482,354.052-166.815,355.719-166.815,357.775z"/>
				</g>
				<g>
					<path style="fill:#DBDBDB;" d="M-155.645,357.775c0,2.056-1.667,3.724-3.723,3.724s-3.723-1.667-3.723-3.724
						c0-2.056,1.667-3.723,3.723-3.723S-155.645,355.719-155.645,357.775z"/>
				</g>
				<g>
					<path style="fill:#DBDBDB;" d="M-177.986,368.322c0,2.056-1.667,3.724-3.723,3.724c-2.057,0-3.723-1.667-3.723-3.724
						s1.667-3.723,3.723-3.723C-179.653,364.598-177.986,366.265-177.986,368.322z"/>
				</g>
				<g>
					<path style="fill:#DBDBDB;" d="M-166.815,368.322c0,2.056-1.667,3.724-3.723,3.724c-2.057,0-3.723-1.667-3.723-3.724
						s1.667-3.723,3.723-3.723C-168.482,364.598-166.815,366.265-166.815,368.322z"/>
				</g>
				<g>
					<path style="fill:#DBDBDB;" d="M-155.645,368.322c0,2.056-1.667,3.724-3.723,3.724s-3.723-1.667-3.723-3.724
						s1.667-3.723,3.723-3.723S-155.645,366.265-155.645,368.322z"/>
				</g>
				<g>
					<path style="fill:#DBDBDB;" d="M-177.986,378.868c0,2.056-1.667,3.724-3.723,3.724c-2.057,0-3.723-1.667-3.723-3.724
						c0-2.056,1.667-3.723,3.723-3.723C-179.653,375.145-177.986,376.812-177.986,378.868z"/>
				</g>
				<g>
					<path style="fill:#DBDBDB;" d="M-166.815,378.868c0,2.056-1.667,3.724-3.723,3.724c-2.057,0-3.723-1.667-3.723-3.724
						c0-2.056,1.667-3.723,3.723-3.723C-168.482,375.145-166.815,376.812-166.815,378.868z"/>
				</g>
				<g>
					<path style="fill:#DBDBDB;" d="M-155.645,378.868c0,2.056-1.667,3.724-3.723,3.724s-3.723-1.667-3.723-3.724
						c0-2.056,1.667-3.723,3.723-3.723S-155.645,376.812-155.645,378.868z"/>
				</g>
			</g>
		</g>
		<g style="clip-path:url(#SVGID_00000177456388828761880890000008176991937387953545_);">
			<g>
				<path style="fill:#42004C;" d="M-158.91,232.387c-1.691,0-3.068-1.376-3.068-3.068c0-1.692,1.376-3.068,3.068-3.068
					c1.692,0,3.068,1.376,3.068,3.068C-155.841,231.01-157.217,232.387-158.91,232.387z M-158.91,227.593
					c-0.951,0-1.726,0.774-1.726,1.726c0,0.952,0.774,1.726,1.726,1.726c0.952,0,1.726-0.774,1.726-1.726
					C-157.183,228.367-157.958,227.593-158.91,227.593z"/>
			</g>
			<g>
				<path style="fill:#42004C;" d="M-147.109,232.387c-1.691,0-3.068-1.376-3.068-3.068c0-1.692,1.376-3.068,3.068-3.068
					c1.692,0,3.068,1.376,3.068,3.068C-144.041,231.01-145.417,232.387-147.109,232.387z M-147.109,227.593
					c-0.952,0-1.726,0.774-1.726,1.726c0,0.952,0.774,1.726,1.726,1.726c0.951,0,1.726-0.774,1.726-1.726
					C-145.383,228.367-146.158,227.593-147.109,227.593z"/>
			</g>
			<g>
				<path style="fill:#42004C;" d="M-158.91,243.634c-1.691,0-3.068-1.376-3.068-3.068c0-1.692,1.376-3.068,3.068-3.068
					c1.692,0,3.068,1.376,3.068,3.068C-155.841,242.258-157.217,243.634-158.91,243.634z M-158.91,238.84
					c-0.951,0-1.726,0.775-1.726,1.726c0,0.952,0.774,1.726,1.726,1.726c0.952,0,1.726-0.774,1.726-1.726
					C-157.183,239.615-157.958,238.84-158.91,238.84z"/>
			</g>
			<g>
				<path style="fill:#42004C;" d="M-147.109,243.634c-1.691,0-3.068-1.376-3.068-3.068c0-1.692,1.376-3.068,3.068-3.068
					c1.692,0,3.068,1.376,3.068,3.068C-144.041,242.258-145.417,243.634-147.109,243.634z M-147.109,238.84
					c-0.952,0-1.726,0.775-1.726,1.726c0,0.952,0.774,1.726,1.726,1.726c0.951,0,1.726-0.774,1.726-1.726
					C-145.383,239.615-146.158,238.84-147.109,238.84z"/>
			</g>
			<g>
				<path style="fill:#42004C;" d="M-158.91,254.881c-1.691,0-3.068-1.376-3.068-3.068c0-1.692,1.376-3.068,3.068-3.068
					c1.692,0,3.068,1.376,3.068,3.068C-155.841,253.505-157.217,254.881-158.91,254.881z M-158.91,250.087
					c-0.951,0-1.726,0.775-1.726,1.726s0.774,1.726,1.726,1.726c0.952,0,1.726-0.774,1.726-1.726S-157.958,250.087-158.91,250.087z"
					/>
			</g>
			<g>
				<path style="fill:#42004C;" d="M-135.309,232.387c-1.691,0-3.068-1.376-3.068-3.068c0-1.692,1.376-3.068,3.068-3.068
					s3.068,1.376,3.068,3.068C-132.241,231.01-133.617,232.387-135.309,232.387z M-135.309,227.593
					c-0.952,0-1.726,0.774-1.726,1.726c0,0.952,0.774,1.726,1.726,1.726s1.725-0.774,1.725-1.726
					C-133.583,228.367-134.357,227.593-135.309,227.593z"/>
			</g>
		</g>
		<g style="clip-path:url(#SVGID_00000177456388828761880890000008176991937387953545_);">
			<g>
				<path style="fill:#DBDBDB;" d="M677.69,478.323c1.647,1.647,1.647,4.318,0,5.965c-1.647,1.647-4.318,1.647-5.964,0
					c-1.647-1.647-1.647-4.318,0-5.965C673.373,476.676,676.043,476.676,677.69,478.323z"/>
			</g>
			<g>
				<path style="fill:#DBDBDB;" d="M689.523,478.323c1.647,1.647,1.647,4.318,0,5.965c-1.647,1.647-4.318,1.647-5.965,0
					c-1.647-1.647-1.647-4.318,0-5.965C685.205,476.676,687.876,476.676,689.523,478.323z"/>
			</g>
			<g>
				<path style="fill:#DBDBDB;" d="M701.355,478.323c1.647,1.647,1.647,4.318,0,5.965c-1.647,1.647-4.317,1.647-5.964,0
					c-1.647-1.647-1.647-4.318,0-5.965S699.708,476.676,701.355,478.323z"/>
			</g>
			<g>
				<path style="fill:#DBDBDB;" d="M713.188,478.323c1.647,1.647,1.647,4.318,0,5.965c-1.647,1.647-4.318,1.647-5.965,0
					c-1.647-1.647-1.647-4.318,0-5.965C708.871,476.676,711.541,476.676,713.188,478.323z"/>
			</g>
			<g>
				<path style="fill:#DBDBDB;" d="M683.314,488.281c1.647,1.647,1.647,4.318,0,5.965c-1.647,1.647-4.318,1.647-5.964,0
					c-1.647-1.647-1.647-4.318,0-5.965C678.996,486.634,681.667,486.634,683.314,488.281z"/>
			</g>
			<g>
				<path style="fill:#DBDBDB;" d="M695.146,488.281c1.647,1.647,1.647,4.318,0,5.965c-1.647,1.647-4.317,1.647-5.965,0
					c-1.647-1.647-1.647-4.318,0-5.965C690.829,486.634,693.499,486.634,695.146,488.281z"/>
			</g>
			<g>
				<path style="fill:#DBDBDB;" d="M706.979,488.281c1.647,1.647,1.647,4.318,0,5.965c-1.647,1.647-4.318,1.647-5.965,0
					c-1.647-1.647-1.647-4.318,0-5.965C702.661,486.634,705.332,486.634,706.979,488.281z"/>
			</g>
			<g>
				<path style="fill:#DBDBDB;" d="M689.171,498.005c1.647,1.647,1.647,4.317,0,5.964c-1.647,1.647-4.317,1.647-5.964,0
					c-1.647-1.647-1.647-4.317,0-5.964S687.524,496.358,689.171,498.005z"/>
			</g>
			<g>
				<path style="fill:#DBDBDB;" d="M701.004,498.005c1.647,1.647,1.647,4.317,0,5.964c-1.647,1.647-4.317,1.647-5.964,0
					c-1.647-1.647-1.647-4.317,0-5.964S699.357,496.358,701.004,498.005z"/>
			</g>
			<g>
				<path style="fill:#DBDBDB;" d="M695.029,507.728c1.647,1.647,1.647,4.317,0,5.965c-1.647,1.647-4.317,1.647-5.964,0
					s-1.647-4.318,0-5.965C690.712,506.081,693.382,506.081,695.029,507.728z"/>
			</g>
		</g>
		<g style="clip-path:url(#SVGID_00000177456388828761880890000008176991937387953545_);">
			<g>
				<polygon style="fill:#42004C;" points="56.696,42.437 48.26,33.977 40.27,41.992 32.426,34.125 24.732,41.843 14.892,31.974 
					17.998,28.878 24.732,35.633 32.426,27.915 40.27,35.781 48.26,27.766 56.696,36.227 65.426,27.469 73.862,35.929 
					80.744,29.027 83.849,32.123 73.862,42.14 65.426,33.68 				"/>
			</g>
			<g>
				<polygon style="fill:none;stroke:#42004C;stroke-miterlimit:10;" points="71.436,28.62 63.001,20.16 55.01,28.175 
					47.167,20.308 39.472,28.026 29.633,18.157 32.738,15.061 39.472,21.816 47.167,14.098 55.01,21.964 63.001,13.949 
					71.436,22.41 80.166,13.652 88.602,22.112 95.484,15.21 98.59,18.306 88.602,28.323 80.166,19.863 				"/>
			</g>
		</g>
		<g style="clip-path:url(#SVGID_00000177456388828761880890000008176991937387953545_);">
			<polygon style="fill:none;stroke:#FFB624;stroke-miterlimit:10;" points="637.756,435.042 628.057,425.314 618.869,434.529 
				609.851,425.484 601.003,434.358 589.69,423.01 593.26,419.451 601.003,427.217 609.851,418.343 618.869,427.388 
				628.057,418.172 637.756,427.901 647.794,417.831 657.493,427.559 665.406,419.622 668.977,423.182 657.493,434.7 
				647.794,424.972 			"/>
		</g>
		<g style="clip-path:url(#SVGID_00000177456388828761880890000008176991937387953545_);">
			<polygon style="fill:#42004C;" points="724.117,284.304 714.418,274.576 705.23,283.792 696.211,274.747 687.364,283.621 
				676.051,272.273 679.621,268.714 687.364,276.48 696.211,267.606 705.23,276.651 714.418,267.435 724.117,277.164 
				734.155,267.094 743.854,276.822 751.767,268.885 755.338,272.445 743.854,283.962 734.155,274.235 			"/>
		</g>
		<g style="clip-path:url(#SVGID_00000177456388828761880890000008176991937387953545_);">
			<polygon style="fill:#42004C;" points="615.387,143.036 603.111,143.018 603.128,154.647 591.714,154.63 591.731,165.829 
				577.41,165.807 577.417,161.302 587.218,161.317 587.201,150.118 598.616,150.135 598.598,138.505 610.875,138.523 
				610.855,125.817 623.131,125.835 623.116,115.819 627.622,115.812 627.644,130.347 615.368,130.329 			"/>
		</g>
		<g style="clip-path:url(#SVGID_00000177456388828761880890000008176991937387953545_);">
			<polygon style="fill:none;stroke:#42004C;stroke-miterlimit:10;" points="452.915,488.271 440.638,488.252 440.656,499.882 
				429.242,499.865 429.258,511.064 414.938,511.042 414.945,506.537 424.746,506.551 424.729,495.353 436.144,495.37 
				436.126,483.74 448.402,483.758 448.383,471.052 460.659,471.069 460.644,461.053 465.15,461.047 465.172,475.582 
				452.895,475.564 			"/>
		</g>
		<g style="clip-path:url(#SVGID_00000177456388828761880890000008176991937387953545_);">
			<polygon style="fill:#FFB624;" points="316.069,504.763 329.806,504.783 329.786,491.77 342.559,491.789 342.54,479.258 
				358.564,479.282 358.556,484.324 347.589,484.307 347.608,496.838 334.835,496.819 334.855,509.833 321.118,509.812 
				321.14,524.03 307.403,524.01 307.42,535.218 302.378,535.225 302.354,518.961 316.091,518.981 			"/>
		</g>
		<g style="clip-path:url(#SVGID_00000177456388828761880890000008176991937387953545_);">
			<g>
				<g>
					<g>
						<ellipse style="fill:#FFB624;" cx="784.312" cy="312.841" rx="1.591" ry="1.586"/>
					</g>
					<g>
						<path style="fill:#FFB624;" d="M766.27,314.427c-0.879,0-1.591-0.71-1.591-1.586s0.712-1.586,1.591-1.586
							s1.591,0.71,1.591,1.586S767.149,314.427,766.27,314.427z"/>
					</g>
					<g>
						<path style="fill:#FFB624;" d="M748.228,314.427c-0.879,0-1.591-0.71-1.591-1.586s0.712-1.586,1.591-1.586
							c0.879,0,1.591,0.71,1.591,1.586S749.107,314.427,748.228,314.427z"/>
					</g>
					<g>
						<path style="fill:#FFB624;" d="M730.186,314.427c-0.879,0-1.591-0.71-1.591-1.586s0.712-1.586,1.591-1.586
							c0.879,0,1.591,0.71,1.591,1.586S731.065,314.427,730.186,314.427z"/>
					</g>
				</g>
				<g>
					<g>
						<ellipse style="fill:#FFB624;" cx="784.312" cy="332.477" rx="1.591" ry="1.586"/>
					</g>
					<g>
						<path style="fill:#FFB624;" d="M766.27,334.063c-0.879,0-1.591-0.71-1.591-1.586c0-0.876,0.712-1.586,1.591-1.586
							s1.591,0.71,1.591,1.586C767.861,333.353,767.149,334.063,766.27,334.063z"/>
					</g>
					<g>
						<path style="fill:#FFB624;" d="M748.228,334.063c-0.879,0-1.591-0.71-1.591-1.586c0-0.876,0.712-1.586,1.591-1.586
							c0.879,0,1.591,0.71,1.591,1.586C749.819,333.353,749.107,334.063,748.228,334.063z"/>
					</g>
					<g>
						<path style="fill:#FFB624;" d="M730.186,334.063c-0.879,0-1.591-0.71-1.591-1.586c0-0.876,0.712-1.586,1.591-1.586
							c0.879,0,1.591,0.71,1.591,1.586C731.777,333.353,731.065,334.063,730.186,334.063z"/>
					</g>
				</g>
				<g>
					<g>
						<path style="fill:#FFB624;" d="M784.312,353.699c-0.879,0-1.591-0.71-1.591-1.586c0-0.876,0.712-1.586,1.591-1.586
							c0.879,0,1.591,0.71,1.591,1.586C785.903,352.989,785.191,353.699,784.312,353.699z"/>
					</g>
					<g>
						<path style="fill:#FFB624;" d="M766.27,353.699c-0.879,0-1.591-0.71-1.591-1.586c0-0.876,0.712-1.586,1.591-1.586
							s1.591,0.71,1.591,1.586C767.861,352.989,767.149,353.699,766.27,353.699z"/>
					</g>
					<g>
						<path style="fill:#FFB624;" d="M748.228,353.699c-0.879,0-1.591-0.71-1.591-1.586c0-0.876,0.712-1.586,1.591-1.586
							c0.879,0,1.591,0.71,1.591,1.586C749.819,352.989,749.107,353.699,748.228,353.699z"/>
					</g>
					<g>
						<path style="fill:#FFB624;" d="M730.186,353.699c-0.879,0-1.591-0.71-1.591-1.586c0-0.876,0.712-1.586,1.591-1.586
							c0.879,0,1.591,0.71,1.591,1.586C731.777,352.989,731.065,353.699,730.186,353.699z"/>
					</g>
				</g>
				<g>
					<g>
						<ellipse style="fill:#FFB624;" cx="784.312" cy="371.75" rx="1.591" ry="1.586"/>
					</g>
					<g>
						<path style="fill:#FFB624;" d="M766.27,373.336c-0.879,0-1.591-0.71-1.591-1.586c0-0.876,0.712-1.586,1.591-1.586
							s1.591,0.71,1.591,1.586C767.861,372.625,767.149,373.336,766.27,373.336z"/>
					</g>
					<g>
						<path style="fill:#FFB624;" d="M748.228,373.336c-0.879,0-1.591-0.71-1.591-1.586c0-0.876,0.712-1.586,1.591-1.586
							c0.879,0,1.591,0.71,1.591,1.586C749.819,372.625,749.107,373.336,748.228,373.336z"/>
					</g>
					<g>
						<path style="fill:#FFB624;" d="M730.186,373.336c-0.879,0-1.591-0.71-1.591-1.586c0-0.876,0.712-1.586,1.591-1.586
							c0.879,0,1.591,0.71,1.591,1.586C731.777,372.625,731.065,373.336,730.186,373.336z"/>
					</g>
				</g>
			</g>
			<g>
				<g>
					<g>
						<path style="fill:#FFB624;" d="M784.312,324.103c-0.879,0-1.591-0.71-1.591-1.586c0-0.876,0.712-1.586,1.591-1.586
							c0.879,0,1.591,0.71,1.591,1.586C785.903,323.393,785.191,324.103,784.312,324.103z"/>
					</g>
					<g>
						<path style="fill:#FFB624;" d="M766.27,324.103c-0.879,0-1.591-0.71-1.591-1.586c0-0.876,0.712-1.586,1.591-1.586
							s1.591,0.71,1.591,1.586C767.861,323.393,767.149,324.103,766.27,324.103z"/>
					</g>
					<g>
						<path style="fill:#FFB624;" d="M748.228,324.103c-0.879,0-1.591-0.71-1.591-1.586c0-0.876,0.712-1.586,1.591-1.586
							c0.879,0,1.591,0.71,1.591,1.586C749.819,323.393,749.107,324.103,748.228,324.103z"/>
					</g>
					<g>
						<path style="fill:#FFB624;" d="M730.186,324.103c-0.879,0-1.591-0.71-1.591-1.586c0-0.876,0.712-1.586,1.591-1.586
							c0.879,0,1.591,0.71,1.591,1.586C731.777,323.393,731.065,324.103,730.186,324.103z"/>
					</g>
				</g>
				<g>
					<g>
						<ellipse style="fill:#FFB624;" cx="784.312" cy="342.153" rx="1.591" ry="1.586"/>
					</g>
					<g>
						<path style="fill:#FFB624;" d="M766.27,343.739c-0.879,0-1.591-0.71-1.591-1.586c0-0.876,0.712-1.586,1.591-1.586
							s1.591,0.71,1.591,1.586C767.861,343.029,767.149,343.739,766.27,343.739z"/>
					</g>
					<g>
						<path style="fill:#FFB624;" d="M748.228,343.739c-0.879,0-1.591-0.71-1.591-1.586c0-0.876,0.712-1.586,1.591-1.586
							c0.879,0,1.591,0.71,1.591,1.586C749.819,343.029,749.107,343.739,748.228,343.739z"/>
					</g>
					<g>
						<path style="fill:#FFB624;" d="M730.186,343.739c-0.879,0-1.591-0.71-1.591-1.586c0-0.876,0.712-1.586,1.591-1.586
							c0.879,0,1.591,0.71,1.591,1.586C731.777,343.029,731.065,343.739,730.186,343.739z"/>
					</g>
				</g>
				<g>
					<g>
						<path style="fill:#FFB624;" d="M784.312,363.376c-0.879,0-1.591-0.71-1.591-1.586c0-0.876,0.712-1.586,1.591-1.586
							c0.879,0,1.591,0.71,1.591,1.586C785.903,362.665,785.191,363.376,784.312,363.376z"/>
					</g>
					<g>
						<path style="fill:#FFB624;" d="M766.27,363.376c-0.879,0-1.591-0.71-1.591-1.586c0-0.876,0.712-1.586,1.591-1.586
							s1.591,0.71,1.591,1.586C767.861,362.665,767.149,363.376,766.27,363.376z"/>
					</g>
					<g>
						<path style="fill:#FFB624;" d="M748.228,363.376c-0.879,0-1.591-0.71-1.591-1.586c0-0.876,0.712-1.586,1.591-1.586
							c0.879,0,1.591,0.71,1.591,1.586C749.819,362.665,749.107,363.376,748.228,363.376z"/>
					</g>
					<g>
						<path style="fill:#FFB624;" d="M730.186,363.376c-0.879,0-1.591-0.71-1.591-1.586c0-0.876,0.712-1.586,1.591-1.586
							c0.879,0,1.591,0.71,1.591,1.586C731.777,362.665,731.065,363.376,730.186,363.376z"/>
					</g>
				</g>
				<g>
					<g>
						<ellipse style="fill:#FFB624;" cx="784.312" cy="381.426" rx="1.591" ry="1.586"/>
					</g>
					<g>
						<path style="fill:#FFB624;" d="M766.27,383.012c-0.879,0-1.591-0.71-1.591-1.586c0-0.876,0.712-1.586,1.591-1.586
							s1.591,0.71,1.591,1.586C767.861,382.302,767.149,383.012,766.27,383.012z"/>
					</g>
					<g>
						<path style="fill:#FFB624;" d="M748.228,383.012c-0.879,0-1.591-0.71-1.591-1.586c0-0.876,0.712-1.586,1.591-1.586
							c0.879,0,1.591,0.71,1.591,1.586C749.819,382.302,749.107,383.012,748.228,383.012z"/>
					</g>
					<g>
						<path style="fill:#FFB624;" d="M730.186,383.012c-0.879,0-1.591-0.71-1.591-1.586c0-0.876,0.712-1.586,1.591-1.586
							c0.879,0,1.591,0.71,1.591,1.586C731.777,382.302,731.065,383.012,730.186,383.012z"/>
					</g>
				</g>
			</g>
			<g>
				<g>
					<g>
						<path style="fill:#FFB624;" d="M793.684,314.427c-0.879,0-1.591-0.71-1.591-1.586s0.712-1.586,1.591-1.586
							s1.591,0.71,1.591,1.586S794.562,314.427,793.684,314.427z"/>
					</g>
					<g>
						<ellipse style="fill:#FFB624;" cx="775.642" cy="312.841" rx="1.591" ry="1.586"/>
					</g>
					<g>
						<path style="fill:#FFB624;" d="M757.6,314.427c-0.879,0-1.591-0.71-1.591-1.586s0.712-1.586,1.591-1.586
							c0.879,0,1.591,0.71,1.591,1.586S758.479,314.427,757.6,314.427z"/>
					</g>
					<g>
						<ellipse style="fill:#FFB624;" cx="739.558" cy="312.841" rx="1.591" ry="1.586"/>
					</g>
					<g>
						<path style="fill:#FFB624;" d="M721.516,314.427c-0.879,0-1.591-0.71-1.591-1.586s0.712-1.586,1.591-1.586
							c0.879,0,1.591,0.71,1.591,1.586S722.395,314.427,721.516,314.427z"/>
					</g>
				</g>
				<g>
					<g>
						<path style="fill:#FFB624;" d="M793.684,334.063c-0.879,0-1.591-0.71-1.591-1.586c0-0.876,0.712-1.586,1.591-1.586
							s1.591,0.71,1.591,1.586C795.275,333.353,794.562,334.063,793.684,334.063z"/>
					</g>
					<g>
						<ellipse style="fill:#FFB624;" cx="775.642" cy="332.477" rx="1.591" ry="1.586"/>
					</g>
					<g>
						<path style="fill:#FFB624;" d="M757.6,334.063c-0.879,0-1.591-0.71-1.591-1.586c0-0.876,0.712-1.586,1.591-1.586
							c0.879,0,1.591,0.71,1.591,1.586C759.191,333.353,758.479,334.063,757.6,334.063z"/>
					</g>
					<g>
						<ellipse style="fill:#FFB624;" cx="739.558" cy="332.477" rx="1.591" ry="1.586"/>
					</g>
					<g>
						<path style="fill:#FFB624;" d="M721.516,334.063c-0.879,0-1.591-0.71-1.591-1.586c0-0.876,0.712-1.586,1.591-1.586
							c0.879,0,1.591,0.71,1.591,1.586C723.107,333.353,722.395,334.063,721.516,334.063z"/>
					</g>
				</g>
				<g>
					<g>
						<path style="fill:#FFB624;" d="M793.684,353.699c-0.879,0-1.591-0.71-1.591-1.586c0-0.876,0.712-1.586,1.591-1.586
							s1.591,0.71,1.591,1.586C795.275,352.989,794.562,353.699,793.684,353.699z"/>
					</g>
					<g>
						<path style="fill:#FFB624;" d="M775.642,353.699c-0.879,0-1.591-0.71-1.591-1.586c0-0.876,0.712-1.586,1.591-1.586
							c0.879,0,1.591,0.71,1.591,1.586C777.233,352.989,776.52,353.699,775.642,353.699z"/>
					</g>
					<g>
						<path style="fill:#FFB624;" d="M757.6,353.699c-0.879,0-1.591-0.71-1.591-1.586c0-0.876,0.712-1.586,1.591-1.586
							c0.879,0,1.591,0.71,1.591,1.586C759.191,352.989,758.479,353.699,757.6,353.699z"/>
					</g>
					<g>
						<path style="fill:#FFB624;" d="M739.558,353.699c-0.879,0-1.591-0.71-1.591-1.586c0-0.876,0.712-1.586,1.591-1.586
							c0.879,0,1.591,0.71,1.591,1.586C741.149,352.989,740.437,353.699,739.558,353.699z"/>
					</g>
					<g>
						<path style="fill:#FFB624;" d="M721.516,353.699c-0.879,0-1.591-0.71-1.591-1.586c0-0.876,0.712-1.586,1.591-1.586
							c0.879,0,1.591,0.71,1.591,1.586C723.107,352.989,722.395,353.699,721.516,353.699z"/>
					</g>
				</g>
				<g>
					<g>
						<path style="fill:#FFB624;" d="M793.684,373.336c-0.879,0-1.591-0.71-1.591-1.586c0-0.876,0.712-1.586,1.591-1.586
							s1.591,0.71,1.591,1.586C795.275,372.625,794.562,373.336,793.684,373.336z"/>
					</g>
					<g>
						<ellipse style="fill:#FFB624;" cx="775.642" cy="371.75" rx="1.591" ry="1.586"/>
					</g>
					<g>
						<path style="fill:#FFB624;" d="M757.6,373.336c-0.879,0-1.591-0.71-1.591-1.586c0-0.876,0.712-1.586,1.591-1.586
							c0.879,0,1.591,0.71,1.591,1.586C759.191,372.625,758.479,373.336,757.6,373.336z"/>
					</g>
					<g>
						<ellipse style="fill:#FFB624;" cx="739.558" cy="371.75" rx="1.591" ry="1.586"/>
					</g>
					<g>
						<path style="fill:#FFB624;" d="M721.516,373.336c-0.879,0-1.591-0.71-1.591-1.586c0-0.876,0.712-1.586,1.591-1.586
							c0.879,0,1.591,0.71,1.591,1.586C723.107,372.625,722.395,373.336,721.516,373.336z"/>
					</g>
				</g>
			</g>
			<g>
				<g>
					<g>
						<path style="fill:#FFB624;" d="M793.684,324.103c-0.879,0-1.591-0.71-1.591-1.586c0-0.876,0.712-1.586,1.591-1.586
							s1.591,0.71,1.591,1.586C795.275,323.393,794.562,324.103,793.684,324.103z"/>
					</g>
					<g>
						<path style="fill:#FFB624;" d="M775.642,324.103c-0.879,0-1.591-0.71-1.591-1.586c0-0.876,0.712-1.586,1.591-1.586
							c0.879,0,1.591,0.71,1.591,1.586C777.233,323.393,776.52,324.103,775.642,324.103z"/>
					</g>
					<g>
						<path style="fill:#FFB624;" d="M757.6,324.103c-0.879,0-1.591-0.71-1.591-1.586c0-0.876,0.712-1.586,1.591-1.586
							c0.879,0,1.591,0.71,1.591,1.586C759.191,323.393,758.479,324.103,757.6,324.103z"/>
					</g>
					<g>
						<path style="fill:#FFB624;" d="M739.558,324.103c-0.879,0-1.591-0.71-1.591-1.586c0-0.876,0.712-1.586,1.591-1.586
							c0.879,0,1.591,0.71,1.591,1.586C741.149,323.393,740.437,324.103,739.558,324.103z"/>
					</g>
					<g>
						<path style="fill:#FFB624;" d="M721.516,324.103c-0.879,0-1.591-0.71-1.591-1.586c0-0.876,0.712-1.586,1.591-1.586
							c0.879,0,1.591,0.71,1.591,1.586C723.107,323.393,722.395,324.103,721.516,324.103z"/>
					</g>
				</g>
				<g>
					<g>
						<path style="fill:#FFB624;" d="M793.684,343.739c-0.879,0-1.591-0.71-1.591-1.586c0-0.876,0.712-1.586,1.591-1.586
							s1.591,0.71,1.591,1.586C795.275,343.029,794.562,343.739,793.684,343.739z"/>
					</g>
					<g>
						<ellipse style="fill:#FFB624;" cx="775.642" cy="342.153" rx="1.591" ry="1.586"/>
					</g>
					<g>
						<path style="fill:#FFB624;" d="M757.6,343.739c-0.879,0-1.591-0.71-1.591-1.586c0-0.876,0.712-1.586,1.591-1.586
							c0.879,0,1.591,0.71,1.591,1.586C759.191,343.029,758.479,343.739,757.6,343.739z"/>
					</g>
					<g>
						<ellipse style="fill:#FFB624;" cx="739.558" cy="342.153" rx="1.591" ry="1.586"/>
					</g>
					<g>
						<path style="fill:#FFB624;" d="M721.516,343.739c-0.879,0-1.591-0.71-1.591-1.586c0-0.876,0.712-1.586,1.591-1.586
							c0.879,0,1.591,0.71,1.591,1.586C723.107,343.029,722.395,343.739,721.516,343.739z"/>
					</g>
				</g>
				<g>
					<g>
						<path style="fill:#FFB624;" d="M793.684,363.376c-0.879,0-1.591-0.71-1.591-1.586c0-0.876,0.712-1.586,1.591-1.586
							s1.591,0.71,1.591,1.586C795.275,362.665,794.562,363.376,793.684,363.376z"/>
					</g>
					<g>
						<path style="fill:#FFB624;" d="M775.642,363.376c-0.879,0-1.591-0.71-1.591-1.586c0-0.876,0.712-1.586,1.591-1.586
							c0.879,0,1.591,0.71,1.591,1.586C777.233,362.665,776.52,363.376,775.642,363.376z"/>
					</g>
					<g>
						<path style="fill:#FFB624;" d="M757.6,363.376c-0.879,0-1.591-0.71-1.591-1.586c0-0.876,0.712-1.586,1.591-1.586
							c0.879,0,1.591,0.71,1.591,1.586C759.191,362.665,758.479,363.376,757.6,363.376z"/>
					</g>
					<g>
						<path style="fill:#FFB624;" d="M739.558,363.376c-0.879,0-1.591-0.71-1.591-1.586c0-0.876,0.712-1.586,1.591-1.586
							c0.879,0,1.591,0.71,1.591,1.586C741.149,362.665,740.437,363.376,739.558,363.376z"/>
					</g>
					<g>
						<path style="fill:#FFB624;" d="M721.516,363.376c-0.879,0-1.591-0.71-1.591-1.586c0-0.876,0.712-1.586,1.591-1.586
							c0.879,0,1.591,0.71,1.591,1.586C723.107,362.665,722.395,363.376,721.516,363.376z"/>
					</g>
				</g>
				<g>
					<g>
						<path style="fill:#FFB624;" d="M793.684,383.012c-0.879,0-1.591-0.71-1.591-1.586c0-0.876,0.712-1.586,1.591-1.586
							s1.591,0.71,1.591,1.586C795.275,382.302,794.562,383.012,793.684,383.012z"/>
					</g>
					<g>
						<ellipse style="fill:#FFB624;" cx="775.642" cy="381.426" rx="1.591" ry="1.586"/>
					</g>
					<g>
						<path style="fill:#FFB624;" d="M757.6,383.012c-0.879,0-1.591-0.71-1.591-1.586c0-0.876,0.712-1.586,1.591-1.586
							c0.879,0,1.591,0.71,1.591,1.586C759.191,382.302,758.479,383.012,757.6,383.012z"/>
					</g>
					<g>
						<ellipse style="fill:#FFB624;" cx="739.558" cy="381.426" rx="1.591" ry="1.586"/>
					</g>
					<g>
						<path style="fill:#FFB624;" d="M721.516,383.012c-0.879,0-1.591-0.71-1.591-1.586c0-0.876,0.712-1.586,1.591-1.586
							c0.879,0,1.591,0.71,1.591,1.586C723.107,382.302,722.395,383.012,721.516,383.012z"/>
					</g>
				</g>
			</g>
		</g>
		<g style="clip-path:url(#SVGID_00000177456388828761880890000008176991937387953545_);">
			<polygon style="fill:none;stroke:#42004C;stroke-miterlimit:10;" points="741.065,268.418 731.366,258.69 722.178,267.905 
				713.16,258.86 704.313,267.734 692.999,256.387 696.57,252.827 704.313,260.594 713.16,251.719 722.178,260.764 731.366,251.549 
				741.065,261.277 751.103,251.207 760.803,260.935 768.716,252.998 772.286,256.558 760.803,268.076 751.103,258.348 			"/>
		</g>
		<g style="clip-path:url(#SVGID_00000177456388828761880890000008176991937387953545_);">
			<g>
				<polygon style="fill:none;stroke:#42004C;stroke-width:3;stroke-miterlimit:10;" points="593.09,222.704 639.709,222.704 
					616.4,182.712 				"/>
			</g>
			<g>
				<polygon style="fill:#FFB624;" points="605.133,215.98 627.667,215.98 616.4,196.649 				"/>
			</g>
		</g>
		<g style="clip-path:url(#SVGID_00000177456388828761880890000008176991937387953545_);">
			<g>
				<path style="fill:#FFB624;" d="M465.137,332.382v-33.415l25.67,16.708L465.137,332.382z M467.875,304.016v23.316l17.913-11.658
					L467.875,304.016z"/>
			</g>
			<g>
				<polygon style="fill:#FFB624;" points="462.63,315.674 450.025,307.47 450.025,323.878 				"/>
			</g>
			<g>
				<polygon style="fill:#FFB624;" points="506.242,315.674 498.549,310.667 498.549,320.681 				"/>
			</g>
		</g>
		<g style="clip-path:url(#SVGID_00000177456388828761880890000008176991937387953545_);">
			<g>
				<path style="fill:#42004C;" d="M649.516,364.776v-42.204l32.421,21.102L649.516,364.776z M652.974,328.949v29.448l22.623-14.724
					L652.974,328.949z"/>
			</g>
			<g>
				<polygon style="fill:#FFB624;" points="646.059,343.673 625.974,330.601 625.974,356.746 				"/>
			</g>
			<g>
				<polygon style="fill:#42004C;" points="705.328,343.673 690.776,334.203 690.776,353.144 				"/>
			</g>
		</g>
		
			<rect x="57.198" y="399.636" style="clip-path:url(#SVGID_00000177456388828761880890000008176991937387953545_);fill:#42004C;" width="11.299" height="11.299"/>
		
			<rect x="508.314" y="426.523" style="clip-path:url(#SVGID_00000177456388828761880890000008176991937387953545_);fill:#42004C;" width="14.503" height="14.504"/>
		
			<rect x="602.409" y="22.495" style="clip-path:url(#SVGID_00000177456388828761880890000008176991937387953545_);fill:#42004C;" width="9.502" height="9.502"/>
		
			<rect x="714.419" y="116.715" style="clip-path:url(#SVGID_00000177456388828761880890000008176991937387953545_);fill:#42004C;" width="10.465" height="10.465"/>
		
			<rect x="20.691" y="279.043" style="clip-path:url(#SVGID_00000177456388828761880890000008176991937387953545_);fill:#42004C;" width="10.412" height="10.412"/>
		<g style="clip-path:url(#SVGID_00000177456388828761880890000008176991937387953545_);">
			<path style="fill:#FFB624;" d="M464.931,425.592c-3.094,0-5.612-2.371-5.612-5.285c0-2.914,2.518-5.285,5.612-5.285
				s5.611,2.371,5.611,5.285C470.543,423.221,468.025,425.592,464.931,425.592z M464.931,416.525c-2.214,0-4.016,1.697-4.016,3.782
				c0,2.085,1.801,3.782,4.016,3.782c2.214,0,4.016-1.697,4.016-3.782C468.947,418.221,467.145,416.525,464.931,416.525z"/>
		</g>
		<path style="clip-path:url(#SVGID_00000177456388828761880890000008176991937387953545_);fill:#FFB624;" d="M701.522,413.84
			c0,2.15-1.743,3.892-3.893,3.892c-2.15,0-3.892-1.743-3.892-3.892c0-2.15,1.743-3.892,3.892-3.892
			C699.779,409.947,701.522,411.69,701.522,413.84z"/>
		<path style="clip-path:url(#SVGID_00000177456388828761880890000008176991937387953545_);fill:#42004C;" d="M104.034,70.416
			c0,2.15-1.743,3.893-3.892,3.893c-2.15,0-3.892-1.743-3.892-3.893c0-2.15,1.743-3.893,3.892-3.893
			C102.292,66.523,104.034,68.266,104.034,70.416z"/>
	</g>
	<g>
		<g>
			<polygon style="fill:#DBDBDB;" points="566.596,92.369 557.468,83.214 548.821,91.887 540.334,83.375 532.008,91.726 
				521.36,81.046 524.72,77.697 532.008,85.006 540.334,76.654 548.821,85.166 557.468,76.493 566.596,85.648 576.043,76.172 
				585.171,85.327 592.618,77.858 595.979,81.208 585.171,92.047 576.043,82.893 			"/>
		</g>
		<g>
			<polygon style="fill:#DBDBDB;" points="602.059,71.492 593.004,62.409 584.357,71.082 575.87,62.57 567.543,70.921 
				560.256,63.612 556.896,66.962 567.543,77.642 575.87,69.29 584.357,77.803 593.004,69.129 602.059,78.212 			"/>
		</g>
	</g>
	<rect x="531.105" y="112.106" style="fill:#42004C;" width="14.504" height="14.503"/>
</g>
</svg>
